<svg xmlns="http://www.w3.org/2000/svg" width="90" height="60" viewBox="0 0 23.812 15.875"><g stroke-width=".265"><path d="M2.249.132C1.003.132.132 1.003.132 2.249v11.377c0 1.246.871 2.117 2.117 2.117H20.05V.132z" fill="#fff" stroke="#dfdfdf"/><path d="M19.711.132L4.1 15.743h17.463c1.246 0 2.117-.871 2.117-2.117V2.249c0-1.246-.871-2.117-2.117-2.117z" fill="#202020" stroke="#404040"/></g><path d="M18.455 8.739c-.731.027-1.405.477-1.67 1.207-.35.961.138 2.031 1.1 2.381.73.266 1.519.038 2.009-.504-.351.113-.742.12-1.116-.017-.893-.325-1.35-1.315-1.025-2.208.136-.374.39-.664.703-.86z" fill="#fff"/><path d="M5.291 3.366l-.58.604h-.743v.743l-.604.58.604.588v.735h.743l.58.604.589-.604h.734v-.735l.604-.588-.604-.58V3.97H5.88l-.588-.604zm0 .868A1.06 1.06 0 0 1 6.35 5.293a1.06 1.06 0 0 1-1.058 1.058 1.06 1.06 0 0 1-1.058-1.058 1.06 1.06 0 0 1 1.058-1.058zm0 .265a.794.794 0 1 0 0 1.588.794.794 0 1 0 0-1.588z" fill="#202020"/></svg>
