<svg width="auto" height="auto" viewBox="0 0 76 75" fill="none" preserveAspectRatio="xMinYMin" xmlns="http://www.w3.org/2000/svg">
<path d="M6.76488 0H69.3454C72.7116 0 75.4658 2.76074 75.4658 6.13497V68.865C75.4658 72.2393 72.7116 75 69.3454 75H6.76488C3.39869 75 0.644531 72.2393 0.644531 68.865V6.13497C0.644531 2.76074 3.39869 0 6.76488 0Z" fill="#161514"/>
<path d="M50.9085 37.8833H25.6621V41.641H50.9085V37.8833Z" fill="#605D5A"/>
<path d="M50.9105 43.4048H25.6641V44.4784H50.9105V43.4048Z" fill="#605D5A"/>
<path d="M29.2576 50.7671H17.8584V56.902H29.2576V50.7671Z" fill="#605D5A"/>
<path d="M44.0222 50.7671H32.623V56.902H44.0222V50.7671Z" fill="#605D5A"/>
<path d="M58.5584 50.7671H47.1592V56.902H58.5584V50.7671Z" fill="#605D5A"/>
<path d="M38.7439 69.2484C41.3213 69.2484 43.4106 67.1883 43.4106 64.6471C43.4106 62.1059 41.3213 60.0459 38.7439 60.0459C36.1665 60.0459 34.0771 62.1059 34.0771 64.6471C34.0771 67.1883 36.1665 69.2484 38.7439 69.2484Z" fill="#E06234"/>
<path d="M38.2847 34.5861C45.6789 34.5861 51.673 28.5776 51.673 21.1658C51.673 13.7541 45.6789 7.74561 38.2847 7.74561C30.8906 7.74561 24.8965 13.7541 24.8965 21.1658C24.8965 28.5776 30.8906 34.5861 38.2847 34.5861Z" fill="#F2F1F0"/>
<path d="M44.176 19.2487C44.0995 22.5463 41.6513 25.2303 38.5147 25.1536C35.378 25.0769 33.0063 22.3929 33.0829 19.0953C33.1594 15.7978 34.4599 13.1904 38.7442 13.1904C43.0284 13.1904 44.176 15.9512 44.176 19.2487Z" fill="#5A4539"/>
<path d="M36.3733 23.4663H34.6902C34.0017 23.4663 33.3896 22.9294 33.3896 22.1626C33.3896 21.4724 33.9252 20.8589 34.6902 20.8589H36.3733V23.4663Z" fill="#9B643D"/>
<path d="M40.8867 23.4663H42.5698C43.2584 23.4663 43.8704 22.9294 43.8704 22.1626C43.8704 21.4724 43.3349 20.8589 42.5698 20.8589H40.8867V23.4663Z" fill="#9B643D"/>
<path d="M44.0994 30.9049C44.0229 30.8283 43.9464 30.8283 43.8699 30.7516C43.7169 30.6749 43.6404 30.5982 43.4874 30.5215C43.4109 30.4448 43.3344 30.4448 43.3344 30.3681C43.2579 30.2914 43.1814 30.2914 43.1049 30.2148C42.9519 30.1381 42.7989 30.0614 42.6458 29.9847C41.5748 29.2945 40.1977 29.0645 38.7441 29.0645C37.214 29.0645 35.7604 29.4479 34.5364 30.1381C34.4599 30.1381 34.4599 30.2148 34.4599 30.2148C34.3069 30.2914 34.1539 30.4448 33.9243 30.5215C33.8478 30.5215 33.8478 30.5982 33.7713 30.5982C33.6948 30.6749 33.6183 30.7516 33.5418 30.8283C33.4653 30.9049 33.4653 30.9049 33.3888 30.9816C33.3123 30.9816 33.3123 31.0583 33.2358 31.0583C32.7003 31.5184 32.2413 32.1319 31.7822 32.8988C33.6948 33.9724 35.9135 34.5859 38.2851 34.5859C40.9628 34.5859 43.4109 33.8191 45.553 32.4387C45.094 31.8252 44.635 31.2884 44.0994 30.9049Z" fill="#B6A0DC"/>
<path d="M40.5037 28.0677V24.4634H37.061V27.991C37.061 28.7579 36.9845 29.0646 36.1429 29.448C35.1484 29.9849 37.1375 31.2118 38.7441 31.2118C40.3507 31.2118 42.4928 29.7548 41.6512 29.448C40.8862 29.2947 40.4272 29.0646 40.5037 28.0677Z" fill="url(#paint0_radial)"/>
<path d="M42.3394 15.2609C41.8038 11.9633 37.9786 11.3498 35.607 12.3467C33.5414 13.1903 32.3938 15.2609 31.7818 13.8038C31.7818 13.8038 30.1752 15.4909 30.6342 17.4081C31.0933 19.3253 32.8529 19.9388 34.3829 19.3253C35.3775 18.8652 36.372 17.178 38.3612 16.0277C39.9677 15.1075 42.3394 15.2609 42.3394 15.2609Z" fill="#5A4539"/>
<path d="M42.8758 20.8594C42.8758 24.0803 40.9632 26.7643 38.515 26.7643C36.1434 26.7643 34.1543 24.1569 34.1543 20.8594C34.1543 17.5618 36.0669 15.2612 38.515 15.2612C40.9632 15.2612 42.8758 17.6385 42.8758 20.8594Z" fill="#9B643D"/>
<path d="M40.3617 21.7802C40.5729 21.7771 40.7401 21.4999 40.735 21.1611C40.73 20.8223 40.5547 20.5502 40.3434 20.5534C40.1322 20.5565 39.965 20.8337 39.9701 21.1725C39.9751 21.5113 40.1504 21.7834 40.3617 21.7802Z" fill="#3A312E"/>
<path d="M38.8212 18.1753L38.7447 19.9391C38.7447 20.8593 38.2857 21.6262 37.9032 22.0863C37.7502 22.3164 37.7502 22.6232 37.9797 22.7765C38.2857 23.0833 38.7447 23.5434 38.7447 24.0035L38.6682 25.0771L36.0671 25.3072L35.9141 18.3287L38.8212 18.1753Z" fill="url(#paint1_radial)"/>
<path d="M37.9796 24.3868C38.1326 24.3868 38.2856 24.3868 38.4387 24.3868C38.5917 24.3868 38.6682 24.3868 38.8212 24.3101C38.9742 24.3101 39.0507 24.2334 39.2037 24.2334C39.3567 24.1568 39.4332 24.1568 39.6627 24.0801C39.7392 24.0801 39.8157 24.0801 39.8157 24.1568V24.2334C39.8157 24.4635 39.6627 24.6169 39.5097 24.7703C39.3567 24.9236 39.1272 25.0003 38.9742 25.077C38.5152 25.1537 38.0561 25.0003 37.8266 24.6936C37.7501 24.6169 37.8266 24.5402 37.9031 24.4635L37.9796 24.3868Z" fill="#5A4539"/>
<path d="M36.766 21.7798C36.9772 21.7766 37.1444 21.4994 37.1393 21.1606C37.1343 20.8218 36.959 20.5497 36.7477 20.5529C36.5365 20.556 36.3693 20.8332 36.3744 21.172C36.3794 21.5108 36.5547 21.7829 36.766 21.7798Z" fill="#3A312E"/>
<path d="M43.2581 16.2578C43.2581 16.2578 40.9629 14.8774 38.5913 14.8774C36.2197 14.8774 33.848 16.1811 33.848 16.1811L33.3125 20.7823L34.307 20.859L35.0721 17.4848C35.1486 17.1781 35.3781 17.0247 35.6841 17.0247H41.4985C41.8045 17.0247 42.034 17.2547 42.1105 17.4848L42.8756 20.859L43.7936 20.7823L43.2581 16.2578Z" fill="#5A4539"/>
<path d="M42.7228 29.9847C42.1873 31.135 40.5807 32.0553 38.5915 32.0553C36.7554 32.0553 35.1488 31.2884 34.6133 30.1381C35.8374 29.4479 37.291 29.0645 38.8211 29.0645C40.1981 29.0645 41.5752 29.2945 42.7228 29.9847Z" fill="#9B643D"/>
<defs>
<radialGradient id="paint0_radial" cx="0" cy="0" r="1" gradientUnits="userSpaceOnUse" gradientTransform="translate(38.634 24.5618) scale(3.78054 3.78957)">
<stop stop-color="#5A4539"/>
<stop offset="1" stop-color="#9B643D"/>
</radialGradient>
<radialGradient id="paint1_radial" cx="0" cy="0" r="1" gradientUnits="userSpaceOnUse" gradientTransform="translate(39.2839 22.4589) rotate(175.674) scale(2.50648 2.64871)">
<stop stop-color="#5A4539"/>
<stop offset="1" stop-color="#9B643D"/>
</radialGradient>
</defs>
</svg>
