<svg viewBox="0 0 640 320" fill="none" xmlns="http://www.w3.org/2000/svg">
<path d="M601.365 178.537C600.585 180.878 599.219 183.024 597.268 184.585C596.878 184.781 596.878 185.366 597.268 185.561C599.219 187.317 600.78 189.464 601.56 191.805C601.756 192.39 602.536 192.39 602.926 191.805C603.707 189.268 605.268 187.122 607.024 185.366C607.414 185.171 607.219 184.585 607.024 184.39C605.073 183.024 603.512 180.878 602.731 178.537C602.341 177.951 601.56 177.951 601.365 178.537Z" stroke="#797673" stroke-miterlimit="10"/>
<path d="M565.268 51.1218C564.682 52.8779 563.512 54.4389 562.146 55.6096C561.951 55.8047 561.951 56.195 562.146 56.3901C563.707 57.5608 564.682 59.3169 565.463 61.073C565.658 61.4632 566.243 61.4632 566.438 61.073C567.024 59.1218 568.195 57.5608 569.56 56.195C569.756 55.9998 569.756 55.6096 569.56 55.4145C567.999 54.2437 567.024 52.8779 566.243 51.1218C566.048 50.7315 565.268 50.7315 565.268 51.1218Z" fill="#605D5A"/>
<path d="M215.415 27.7076C214.829 29.4637 213.659 31.0247 212.293 32.1954C212.098 32.3905 212.098 32.7808 212.293 32.9759C213.854 34.1466 214.829 35.9027 215.61 37.6588C215.805 38.049 216.39 38.049 216.586 37.6588C217.171 35.7076 218.342 34.1466 219.707 32.7807C219.903 32.5856 219.903 32.1954 219.707 32.0003C218.146 30.8295 217.171 29.4637 216.39 27.7076C216.195 27.1222 215.415 27.1222 215.415 27.7076Z" fill="#949DAA"/>
<path d="M531.902 78.8295C530.146 82.9271 527.024 86.4393 523.317 88.7807C522.732 89.171 522.537 90.1466 523.122 90.5368C526.439 93.8539 528.781 98.1466 529.756 102.83C529.951 104 531.512 104.195 532.098 103.025C534.049 98.5368 536.976 94.8295 540.878 92.0978C541.463 91.7076 541.463 90.7319 540.878 90.1466C537.561 87.2197 535.22 83.1222 534.049 78.8295C533.854 78.049 532.293 77.8539 531.902 78.8295Z" fill="#797673"/>
<path d="M69.8533 114.342C68.8777 116.879 67.1216 118.83 64.9753 120.391C64.5851 120.586 64.5851 121.171 64.9753 121.562C66.9265 123.513 68.2924 125.854 69.0729 128.586C69.268 129.171 70.2436 129.366 70.4387 128.586C71.4143 126.049 73.1704 123.708 75.3168 122.147C75.707 121.952 75.707 121.366 75.3168 120.976C73.3655 119.22 71.8046 117.074 71.2192 114.537C71.0241 113.757 70.0485 113.757 69.8533 114.342Z" fill="#797673"/>
<path d="M59.512 41.171C57.7559 46.2442 54.6339 50.732 50.3412 53.8539C49.5607 54.4393 49.5607 55.4149 50.3412 56.0003C54.4388 59.7076 57.7559 64.3905 59.512 69.8539C59.9022 71.2198 61.8534 71.2198 62.2437 69.8539C63.9998 64.3905 67.3168 59.7076 71.4144 56.0003C72.1949 55.4149 71.9998 54.4393 71.4144 53.8539C67.1217 50.732 63.9998 46.2442 62.2437 41.171C61.6583 40.0003 59.9022 40.0003 59.512 41.171Z" stroke="#797673" stroke-miterlimit="10"/>
<path d="M78.6339 269.073C77.8534 257.17 79.2192 247.805 80.39 241.366C83.1217 227.512 87.0241 221.268 87.4144 208.975C87.6095 199.805 85.8534 192.39 84.2924 187.707C87.2192 194.341 89.9509 201.756 92.4875 209.951C99.3168 232.195 101.268 252.488 101.463 268.878L78.6339 269.073Z" fill="#83C773"/>
<path d="M93.2679 269.659C90.1459 266.732 84.4874 260.683 81.5605 251.317C76.2923 234.537 83.5118 220.293 85.0727 217.171C75.5118 223.61 69.8532 232.586 68.4874 239.805C67.1215 247.025 69.463 256.586 69.463 256.781C69.463 257.171 69.6581 257.366 69.6581 257.561C71.2191 263.025 73.7557 267.122 75.7069 269.659C81.5605 269.659 87.4142 269.659 93.2679 269.659Z" fill="#AED8A8"/>
<path d="M98.9268 269.268C101.463 265.365 108.683 254.244 113.366 242.926C115.512 237.658 116.683 233.756 117.268 230.829C117.658 228.683 118.439 225.561 118.634 221.463C118.829 218.536 118.439 216 118.244 213.463C117.854 208.975 117.268 206.829 117.463 206.634C117.658 206.634 123.512 223.414 123.512 243.317C123.512 254.048 121.951 262.829 120.39 269.073C113.171 269.073 106.146 269.268 98.9268 269.268Z" fill="url(#paint0_radial)"/>
<path d="M84.8779 269.073C87.2194 262.829 90.3413 253.659 94.0487 242.732C100.097 224.976 102.049 218.342 100.293 209.951C99.1218 204.098 96.5852 199.805 94.634 197.073C98.3413 201.171 102.439 206.049 105.756 212.293C118.829 235.512 116.293 259.122 114.536 269.464C104.78 269.464 94.8291 269.268 84.8779 269.073Z" fill="#AED8A8"/>
<path d="M112.195 310.439H80.7801C77.0728 310.439 74.1459 307.512 74.1459 304L68.0972 278.048C68.0972 274.536 71.024 271.609 74.7313 271.609H118.243C121.951 271.609 124.878 274.536 124.878 278.048L118.829 304C118.829 307.512 115.902 310.439 112.195 310.439Z" fill="url(#paint1_radial)"/>
<path d="M125.658 268.878H107.317H85.268H67.5119C65.1705 268.878 63.2192 270.829 63.2192 272.975C63.2192 275.317 65.1705 277.073 67.5119 277.073H125.658C128 277.073 129.951 275.122 129.951 272.975C129.951 270.829 128 268.878 125.658 268.878Z" fill="#E1DFDD"/>
<path d="M532.487 319.415L532.097 285.659C485.268 284.488 423.609 282.537 379.512 278.635L387.121 319.415H532.487Z" fill="url(#paint2_radial)"/>
<path d="M534.634 319.415L535.024 285.854L439.609 282.732L449.561 319.415H534.634Z" fill="#605D5A"/>
<path d="M477.853 127.415H417.171C413.463 127.415 410.341 123.707 410.341 119.22C410.341 114.732 413.463 111.024 417.171 111.024H477.853C481.561 111.024 484.683 114.732 484.683 119.22V120.976C484.683 125.463 481.561 127.415 477.853 127.415Z" fill="#A7CBF6"/>
<path d="M562.731 165.464C552 206.244 538.731 247.025 527.805 287.61L375.219 279.61L350.048 159.415C350.048 138.732 305.951 108.488 327.024 108.488L511.805 125.659C517.073 126.244 528.195 128 539.317 136C552.195 145.757 560.39 159.61 562.731 165.464Z" fill="url(#paint3_radial)"/>
<path d="M478.439 90.5372L478.634 125.464C468.683 125.854 458.536 126.244 447.804 126.244C438.244 126.244 429.073 126.244 420.292 126.049C419.902 113.562 419.512 101.074 419.122 88.5859L478.439 90.5372Z" fill="#9B643D"/>
<path d="M477.853 128.39C470.049 130.146 460.292 131.512 448.975 131.707C436.488 131.902 425.951 130.341 417.561 128.585C413.268 128.39 410.146 124.683 410.536 120.78C410.731 117.268 413.658 114.341 417.366 113.951C426.146 115.512 436.878 116.683 449.171 116.683C460.292 116.683 470.049 115.512 478.244 113.951C481.951 114.146 484.878 117.268 485.073 120.78C485.073 124.683 481.951 128 477.853 128.39Z" fill="#A7CBF6"/>
<path d="M456.781 101.463C456.39 102.829 455.415 103.805 454.244 104.585C453.268 105.366 452.098 105.756 450.927 105.951C449.756 106.146 448.585 106.341 447.22 105.951C446.049 105.756 444.683 105.171 443.707 104C443.317 103.61 443.512 103.024 443.902 102.634C444.098 102.439 444.488 102.439 444.878 102.439L445.268 102.634C446.634 103.024 448.585 103.024 450.342 102.634C452.098 102.244 453.854 101.659 455.024 100.488L455.22 100.293C455.61 99.9024 456.39 99.9024 456.781 100.293C456.781 100.683 456.976 101.268 456.781 101.463Z" fill="#9B643D"/>
<path d="M425.561 86.8298C425.366 90.7322 422.634 93.8541 419.122 93.659C415.805 93.4639 413.073 90.3419 413.268 86.4395C413.463 82.5371 416.195 79.4151 419.707 79.6102C423.024 79.6102 425.756 82.9273 425.561 86.8298Z" fill="#9B643D"/>
<path d="M484.293 88.9762C484.098 92.8787 481.366 96.0006 477.854 95.8055C474.537 95.6104 471.805 92.4884 472 88.586C472.195 84.6835 474.927 81.5616 478.439 81.7567C481.756 81.7567 484.293 85.0738 484.293 88.9762Z" fill="#9B643D"/>
<path d="M451.317 124.098C448.585 123.903 445.658 123.903 442.927 123.708C440.585 123.318 432.195 121.757 425.561 113.952C419.317 106.732 418.731 98.5373 418.731 96.1958L419.317 79.6104C419.902 65.1714 432.39 53.8543 447.219 54.4397L453.073 54.6348C467.902 55.2202 479.61 67.3177 479.024 81.7568L478.439 98.3421C478.244 100.684 477.073 108.684 470.244 115.513C462.634 123.318 453.463 124.098 451.317 124.098Z" fill="url(#paint4_linear)"/>
<path d="M464.39 104.195C463.024 104.39 461.463 104.195 460.293 103.219C459.512 102.634 458.341 102.049 456.39 101.658C453.854 100.878 444.293 103.61 440.976 103.805C437.658 103.805 434.927 103.415 434.927 103.415C427.512 103.219 421.658 96.7804 422.049 88.9756L422.244 81.9512C422.829 68.0975 434.146 57.1707 447.61 57.5609L452.097 57.756C465.561 58.3414 476.293 70.0487 475.707 83.9024L475.512 90.9268C475.317 97.5609 470.634 103.024 464.39 104.195Z" fill="#9B643D"/>
<path d="M442.731 118.439L419.316 116.098L421.073 70.0491L444.487 68.293L442.731 118.439Z" fill="url(#paint5_radial)"/>
<path d="M457.123 89.6797C457.187 87.8489 456.365 86.3343 455.288 86.2969C454.211 86.2595 453.287 87.7134 453.223 89.5443C453.159 91.3752 453.981 92.8897 455.058 92.9271C456.135 92.9645 457.06 91.5106 457.123 89.6797Z" fill="#33312D"/>
<path d="M443.122 103.22C443.122 102.049 442.341 101.073 441.366 100.878C438.829 100.098 437.268 97.7563 437.268 95.2197C437.268 93.2685 438.439 91.5124 440.195 90.5368C443.122 88.5856 443.707 86.2441 443.707 86.2441C443.707 86.2441 449.561 92.488 449.366 95.61C449.366 98.9271 446.634 103.415 443.122 103.22Z" fill="#9B643D"/>
<path d="M435.606 88.9727C435.67 87.1418 434.848 85.6273 433.771 85.5899C432.694 85.5525 431.77 87.0064 431.706 88.8373C431.642 90.6681 432.464 92.1827 433.541 92.2201C434.618 92.2575 435.542 90.8036 435.606 88.9727Z" fill="#33312D"/>
<path d="M511.219 298.147C511.219 298.147 624.195 281.757 550.243 147.513C551.024 157.854 551.804 172.879 551.024 191.025C550.048 211.903 549.658 224.391 544.975 238.244C541.463 248.391 533.853 267.903 510.048 286.635C510.634 290.342 510.439 294.44 511.219 298.147Z" fill="url(#paint6_radial)"/>
<path d="M442.341 109.269C444.292 109.073 445.853 108.683 447.414 108.098C448.195 107.708 448.78 107.512 449.561 106.927C450.146 106.537 450.927 105.951 451.512 105.366C451.707 105.171 452.097 105.171 452.488 105.366C452.683 105.561 452.683 105.561 452.683 105.756C452.683 106.927 452.293 108.098 451.512 109.073C450.732 110.049 449.756 110.634 448.585 111.22C446.439 112 443.707 112 441.951 110.439C441.756 110.244 441.756 109.854 441.951 109.659C441.951 109.269 442.146 109.269 442.341 109.269Z" fill="#9A6541"/>
<path d="M112.781 304.196H406.244C410.146 304.196 413.463 300.879 413.463 296.976V107.903C413.463 104.001 410.146 100.684 406.244 100.684H112.781C108.878 100.684 105.561 104.001 105.561 107.903V296.976C105.561 301.074 108.683 304.196 112.781 304.196Z" fill="#605D5A"/>
<path d="M120.39 286.83H399.414C403.122 286.83 406.049 283.903 406.049 280.196V115.513C406.049 111.806 403.122 108.879 399.414 108.879H120.39C116.683 108.879 113.756 111.806 113.756 115.513V280.196C113.756 283.903 116.683 286.83 120.39 286.83Z" fill="#33312D"/>
<path d="M432.195 310.635H90.3414C86.2438 310.635 82.9268 307.318 82.9268 303.22C82.9268 299.123 86.2438 295.806 90.3414 295.806H432.39C436.488 295.806 439.805 299.123 439.805 303.22C439.61 307.318 436.293 310.635 432.195 310.635Z" fill="#B2AEAA"/>
<path d="M526.634 298.342H471.219C467.902 298.342 465.17 295.61 465.17 292.293V150.439C465.17 147.122 467.902 144.391 471.219 144.391H540.878C544.195 144.391 546.926 147.122 546.926 150.439V285.074C546.731 288.391 529.951 298.342 526.634 298.342Z" fill="#C7C5C3"/>
<path d="M536.195 286.439H475.707C473.365 286.439 471.609 284.683 471.609 282.342V155.317C471.609 152.976 473.365 151.22 475.707 151.22H536.195C538.536 151.22 540.292 152.976 540.292 155.317V282.342C540.292 284.488 538.341 286.439 536.195 286.439Z" fill="#33312D"/>
<path d="M517.463 157.464H494.634C492.097 157.464 490.146 155.318 490.146 152.976V152.001C490.146 149.464 492.292 147.513 494.634 147.513H517.463C520 147.513 521.951 149.659 521.951 152.001V152.976C521.951 155.318 520 157.464 517.463 157.464Z" fill="#C7C5C3"/>
<path d="M510.634 153.366H501.464C501.073 153.366 500.683 152.976 500.683 152.391C500.683 151.805 501.073 151.415 501.464 151.415H510.829C511.22 151.415 511.61 151.805 511.61 152.391C511.61 152.976 511.22 153.366 510.634 153.366Z" fill="#33312D"/>
<path d="M508.683 286.829L511.024 297.951L495.609 302.634C492.878 304 489.561 305.171 485.658 305.951C482.536 306.732 480 307.122 477.853 307.317C476.487 307.317 474.146 307.317 470.439 307.707C467.317 307.707 465.17 307.512 464.39 307.122C463.024 306.341 462.244 304.975 461.853 303.024C460.878 302.634 459.512 302.439 457.951 302.049C456.975 301.658 456.195 301.268 455.609 300.683C454.829 298.927 455.414 297.951 457.365 297.561L478.829 291.317L474.731 289.756C471.805 288.585 469.463 287.61 467.902 286.829C466.536 286.049 465.951 285.268 466.341 284.293C466.731 283.317 467.707 282.927 469.268 282.927C473.951 282.732 478.048 282.927 481.756 283.512C484.097 283.902 487.414 284.097 491.512 284.488L508.683 286.829Z" fill="#9B643D"/>
<path d="M243.902 100.098L241.756 90.9274L228.487 88.3908C225.561 87.8054 222.439 87.4152 218.731 87.6103C215.609 87.6103 213.268 87.8054 211.317 88.1957C210.146 88.5859 207.804 88.9762 204.487 89.5615C201.561 90.342 199.804 90.9274 199.024 91.5128C197.853 92.4884 197.463 93.8542 197.463 95.8054C196.683 96.3908 195.512 96.9762 194.146 97.5615C193.365 98.1469 192.585 98.7323 192.195 99.3176C191.804 101.074 192.585 101.854 194.536 101.854L215.609 102.83L212.292 105.171C209.756 106.927 207.804 108.293 206.634 109.269C205.463 110.244 205.268 111.22 205.658 111.805C206.244 112.586 207.219 112.781 208.78 112.391C213.073 111.415 216.975 110.244 220.097 109.074C222.244 108.293 225.17 107.318 228.878 106.147L243.902 100.098Z" fill="#9B643D"/>
<path d="M241.951 89.562C240.975 94.0498 239.805 98.7327 238.829 103.221C240.975 103.611 244.293 104.391 248.585 104.782C265.561 106.733 276.293 103.611 293.854 101.855C299.902 101.269 309.073 100.489 320.585 100.684C306.927 96.001 289.756 91.7083 269.658 89.9522C259.512 89.1717 250.341 89.1718 241.951 89.562Z" fill="#9FC6F5"/>
<path d="M138.341 88.5861C136.585 93.269 133.463 97.3665 129.365 100.293C128.585 100.879 128.585 101.854 129.17 102.44C133.073 105.952 135.999 110.44 137.56 115.708C137.951 117.074 139.707 117.074 140.097 115.708C141.853 110.635 144.975 106.342 149.073 102.83C149.658 102.245 149.658 101.269 149.073 100.684C145.17 97.5617 142.243 93.269 140.682 88.5861C140.487 87.4153 138.926 87.4153 138.341 88.5861Z" fill="#949DAA"/>
<path d="M138.341 88.5854C136.585 93.4635 133.268 97.7562 129.171 100.683C128.976 100.683 128.976 100.878 128.976 100.878H149.268C145.366 97.7562 142.439 93.4635 140.878 88.5854C140.488 87.4147 138.927 87.2196 138.341 88.5854Z" fill="#616D7C"/>
<path d="M132.292 279.415H388.878C392.195 279.415 394.927 276.683 394.927 273.366V124.098C394.927 120.781 392.195 118.049 388.878 118.049H132.292C128.975 118.049 126.244 120.781 126.244 124.098V273.366C126.244 276.683 128.975 279.415 132.292 279.415Z" fill="#33312D"/>
<path d="M131.902 118.244C128.585 118.244 125.854 120.976 125.854 124.293V273.561C125.854 276.878 128.585 279.61 131.902 279.61H220.683V118.244H131.902Z" fill="#605D5A"/>
<path d="M193.171 222.635H153.561C152 222.635 150.829 221.464 150.829 219.903V137.366C150.829 135.806 152 134.635 153.561 134.635H193.171C194.732 134.635 195.902 135.806 195.902 137.366V219.903C195.902 221.464 194.732 222.635 193.171 222.635Z" fill="#C7C5C3"/>
<path d="M344.195 126.635H229.268V160.196H344.195V126.635Z" fill="#FFD590"/>
<path d="M255.415 131.708H232V155.123H255.415V131.708Z" fill="#F7B548"/>
<path d="M255.415 155.122V146.146H243.512H232V155.122H255.415Z" fill="#C8C6C4"/>
<path d="M335.414 133.269H259.707V140.683H335.414V133.269Z" fill="#FFE5B9"/>
<path d="M330.536 145.171H259.707V152.586H330.536V145.171Z" fill="#FFE5B9"/>
<path d="M242.244 140.391C242.439 140.586 242.829 140.586 243.024 140.781C243.414 140.781 243.61 140.781 244 140.781C244.39 140.781 244.78 140.586 244.78 140.391V140.195C244.78 140.195 244.78 140 244.585 140H244.39C244.195 140.195 243.61 140.195 243.024 140C242.829 140 242.439 139.805 242.439 139.805C242.244 139.805 242.049 139.61 241.853 139.415C241.658 139.22 241.658 139.22 241.463 139.415C241.463 139.415 241.268 139.61 241.463 139.61C241.658 139.805 241.853 140.195 242.244 140.391Z" fill="#9A6541"/>
<path d="M251.024 144.879C251.024 143.903 251.219 135.513 251.219 135.513L236.195 136.098V145.074C236.195 146.049 234.829 146.244 234.829 146.244C235.805 147.415 239.707 148.976 244 148.586C248.683 148.586 251.024 147.025 252.39 146.049C252.195 146.049 251.024 146.244 251.024 144.879Z" fill="#9A6541"/>
<path d="M249.853 137.464C250.244 137.855 250.634 138.05 251.024 138.05C251.414 138.05 251.805 137.855 252.195 137.464C252.39 137.074 252.585 136.684 252.585 136.098C252.585 135.513 252.39 135.123 252 134.928C251.61 134.537 251.219 134.342 250.829 134.537C250.439 134.537 250.049 134.733 249.658 135.123C249.268 135.513 249.268 135.903 249.268 136.489C249.463 136.684 249.658 137.074 249.853 137.464Z" fill="#9A6541"/>
<path d="M234.634 136.293C234.634 136.879 234.829 137.269 235.219 137.464C235.609 137.854 236 138.049 236.39 137.854C236.78 137.854 237.17 137.659 237.561 137.269C237.756 136.879 237.951 136.489 237.951 135.903C237.951 135.318 237.756 134.928 237.365 134.732C236.975 134.342 236.585 134.147 236.195 134.342C235.805 134.537 235.414 134.537 235.024 134.928C234.634 135.318 234.634 135.903 234.634 136.293Z" fill="#9A6541"/>
<path d="M236 134.537V139.025C236 140.781 236.78 142.537 238.146 143.903C239.512 145.269 241.073 145.659 242.829 145.659L244.976 145.464C246.732 145.464 248.293 144.683 249.463 143.318C250.634 141.952 251.22 140.781 251.22 138.83L251.024 134.342C251.024 132.391 250.244 130.83 248.878 129.464C247.512 128.098 246.146 127.513 244.195 127.513H242.439C240.488 127.513 239.122 128.488 237.756 129.854C236.585 131.415 236 132.586 236 134.537Z" fill="#9A6541"/>
<path opacity="0.75" d="M250.341 134.635V136.001C250.341 136.976 250.146 137.757 249.365 138.342C248.78 138.927 248 139.318 247.219 139.513C245.658 139.708 245.463 138.732 243.512 138.927C241.756 138.927 240.78 139.708 239.609 139.708C238.829 139.708 238.244 139.318 237.658 138.732C237.073 138.147 236.878 137.562 236.878 136.781V135.025H236.097L236.292 139.708C236.292 141.464 237.073 143.025 238.439 144.196C239.804 145.366 240.975 145.952 242.536 145.952H245.268C247.219 145.952 248.585 145.171 249.756 143.806C250.926 142.44 251.512 140.879 251.512 139.123L251.317 135.025L250.341 134.635Z" fill="url(#paint7_linear)"/>
<path d="M247.712 135.705C247.734 135.065 247.447 134.535 247.07 134.522C246.693 134.508 246.369 135.017 246.347 135.658C246.325 136.299 246.612 136.829 246.989 136.842C247.366 136.855 247.69 136.346 247.712 135.705Z" fill="#33312D"/>
<path d="M241.858 135.705C241.881 135.065 241.593 134.535 241.216 134.522C240.839 134.508 240.516 135.017 240.493 135.658C240.471 136.299 240.759 136.829 241.136 136.842C241.513 136.855 241.836 136.346 241.858 135.705Z" fill="#33312D"/>
<path d="M371.469 144.915L275.469 145.434L275.954 235.19L371.954 234.671L371.469 144.915Z" fill="#E1DFDD"/>
<path d="M368.39 148.053L278.049 148.541L278.448 222.492L368.79 222.004L368.39 148.053Z" fill="#CEE4AD"/>
<path d="M317.463 214.83C316.878 212.489 316.293 208.977 316.683 204.684C317.073 201.562 317.854 198.83 318.634 197.074C316.878 197.269 314.536 197.66 311.805 198.635C302.634 201.562 296.975 206.635 296 207.611C292.878 210.538 287.805 215.221 285.854 222.44H301.463C307.317 215.806 315.512 215.025 317.463 214.83Z" fill="url(#paint8_radial)"/>
<path d="M332.487 163.513L310.829 168.196L309.073 167.806L310.439 166.635L332.097 161.952C332.487 161.952 332.878 162.147 332.878 162.538C333.073 163.123 332.683 163.513 332.487 163.513Z" fill="#E06234"/>
<path d="M321.17 169.366C325.05 169.366 328.195 166.221 328.195 162.342C328.195 158.462 325.05 155.317 321.17 155.317C317.291 155.317 314.146 158.462 314.146 162.342C314.146 166.221 317.291 169.366 321.17 169.366Z" fill="url(#paint9_linear)"/>
<path d="M324.683 192.781C332.442 192.781 338.731 186.491 338.731 178.732C338.731 170.973 332.442 164.684 324.683 164.684C316.924 164.684 310.634 170.973 310.634 178.732C310.634 186.491 316.924 192.781 324.683 192.781Z" fill="#59453C"/>
<path d="M338.731 198.05C337.561 197.66 335.414 197.074 333.463 196.879C332.487 196.684 331.707 195.904 331.707 194.733V187.123L322.731 187.513V195.123C322.731 196.099 321.951 196.879 321.17 196.879C319.024 197.074 317.268 197.465 315.122 198.245C315.122 198.245 317.268 205.074 322.731 207.221C324.878 208.001 329.561 208.391 331.707 207.806C336.585 206.05 338.731 198.05 338.731 198.05Z" fill="url(#paint10_linear)"/>
<path d="M344.975 217.561C344.975 210.537 343.414 204.488 338.926 200.586C338.536 200.196 337.951 199.805 337.561 199.415C332.878 201.561 324.878 203.317 316.292 199.415C315.902 199.61 314.926 200.586 314.146 201.171C310.048 205.074 309.073 211.122 309.073 217.757V222.049L344.975 221.854V217.561Z" fill="#F9F8F7"/>
<path d="M327.729 193.094C333.425 191.903 336.934 185.635 335.566 179.096C334.198 172.556 328.472 168.22 322.777 169.412C317.081 170.603 313.572 176.87 314.94 183.409C316.307 189.949 322.033 194.285 327.729 193.094Z" fill="#E0BB95"/>
<path d="M314.341 183.221C313.951 183.806 313.56 184.391 313.756 185.172C313.756 185.952 314.146 186.538 314.731 186.928C315.316 187.318 315.902 187.708 316.682 187.513C317.463 187.318 318.048 187.123 318.634 186.538C319.024 185.952 319.219 185.367 319.219 184.586C319.024 183.806 318.829 183.221 318.243 182.635C317.658 182.245 316.877 182.05 316.097 182.05C315.316 182.44 314.731 182.635 314.341 183.221Z" fill="#E0BB95"/>
<path d="M332.487 179.513C332.097 180.098 331.707 180.683 331.902 181.464C331.902 182.244 332.292 182.83 332.878 183.22C333.463 183.61 334.048 184 334.829 183.805C335.609 183.61 336.195 183.415 336.78 182.83C337.17 182.244 337.365 181.659 337.365 180.878C337.17 180.098 336.975 179.513 336.39 178.927C335.804 178.537 335.024 178.342 334.243 178.342C333.658 178.537 333.073 178.927 332.487 179.513Z" fill="#E0BB95"/>
<path d="M313.366 173.269C311.61 177.366 311.805 180.683 313.561 184.195C314.536 181.659 316.292 182.244 318.439 181.269C321.171 179.903 324.097 179.512 325.853 176.781C328 173.464 327.219 168.781 326.634 166.634C326.439 166.244 316.292 167.415 313.366 173.269Z" fill="#594539"/>
<path d="M326.439 168.976C326.048 171.512 328 179.903 336.78 178.537C336.195 175.025 335.804 171.512 333.268 169.171C330.731 167.025 327.219 165.073 326.439 168.976Z" fill="#594539"/>
<path d="M324.487 179.318L326.829 189.074L332.292 187.903L329.951 177.952L324.487 179.318Z" fill="url(#paint11_radial)"/>
<path d="M330.927 186.147C328.585 186.538 326.439 185.172 325.854 183.025C325.268 180.684 326.829 178.538 328.975 177.952C331.317 177.562 333.463 178.928 334.049 181.074C334.244 182.245 334.049 183.22 333.463 184.196C333.073 185.367 332.097 185.952 330.927 186.147C331.122 186.147 330.927 186.147 330.927 186.147ZM329.561 178.928C329.366 178.928 329.366 178.928 329.561 178.928C327.805 179.318 326.634 181.074 327.024 182.83C327.414 184.586 329.171 185.562 330.732 185.172C331.512 184.977 332.293 184.391 332.683 183.806C333.073 183.025 333.268 182.245 333.073 181.464C332.878 179.708 331.122 178.538 329.561 178.928Z" fill="#FAF9F8"/>
<path d="M325.853 182.05C325.853 182.05 326.243 183.221 327.414 184.196C328 184.586 328 185.367 327.804 185.952C327.609 186.538 326.243 187.318 326.243 187.513L324.487 187.903L323.512 182.635L325.853 182.05Z" fill="#E0BB95"/>
<path d="M321.951 188.098C319.61 188.489 317.463 187.123 316.878 184.976C316.293 182.635 317.854 180.489 320 179.903C321.171 179.708 322.146 179.903 323.122 180.489C324.097 181.074 324.683 182.05 325.073 183.22C325.854 185.367 324.293 187.708 321.951 188.098C322.146 188.098 321.951 188.098 321.951 188.098ZM320.585 180.879C320.585 180.879 320.39 180.879 320.585 180.879C318.829 181.269 317.658 183.025 318.049 184.781C318.439 186.537 320.195 187.513 321.756 187.123C323.512 186.733 324.488 184.976 324.097 183.22C323.902 182.44 323.317 181.659 322.732 181.269C322.146 180.879 321.366 180.684 320.585 180.879Z" fill="#FAF9F8"/>
<path d="M324.683 182.83C324.487 182.83 324.097 182.635 324.097 182.439C324.097 182.244 324.292 181.854 324.487 181.854L326.243 181.464C326.439 181.464 326.829 181.659 326.829 181.854C326.829 182.049 326.634 182.439 326.439 182.439L324.683 182.83Z" fill="#FAF9F8"/>
<path d="M328.39 189.269C328 189.659 327.805 189.854 327.414 190.049C327.024 190.245 326.634 190.245 326.244 190.245C325.854 190.245 325.463 190.245 325.073 190.049C324.683 189.854 324.293 189.659 324.097 189.269C323.902 189.074 324.097 188.879 324.293 188.684C324.488 188.684 324.488 188.684 324.683 188.684C325.073 188.684 325.268 188.879 325.463 188.879C325.658 188.879 326.049 188.879 326.244 188.879C326.439 188.879 326.829 188.879 327.024 188.879C327.219 188.879 327.61 188.684 327.805 188.684C328 188.684 328.195 188.879 328.39 189.074C328.585 189.074 328.585 189.269 328.39 189.269Z" fill="#BF8F68"/>
<path d="M320.39 198.05C320.39 197.464 319.804 196.879 319.024 196.879C311.219 198.05 309.073 200.781 308.292 209.757C308.292 209.952 308.292 211.123 308.097 212.294C308.097 213.659 307.902 215.806 307.902 216.196C307.902 218.147 307.902 220.098 308.097 222.245H320.39C320.195 213.855 320.195 205.855 320.39 198.05Z" fill="#FFB900"/>
<path d="M347.707 215.025C348.097 215.025 348.292 215.221 350.048 215.806C350.439 216.001 351.024 216.001 351.609 216.196C351.804 216.196 355.512 216.586 356.682 215.025C358.243 212.879 354.341 205.66 348.487 201.562C343.024 197.66 336.975 197.074 333.658 197.074C333.853 207.416 333.268 216.001 332.487 222.245H347.121C346.536 217.952 346.926 215.221 347.707 215.025Z" fill="url(#paint12_radial)"/>
<path d="M327.219 193.952C327.219 193.952 327.024 193.952 327.219 193.952L327.024 193.171C327.024 192.391 326.439 191.806 325.658 192.001L319.805 192.196C319.024 192.196 318.439 192.781 318.634 193.562L318.829 202.537C318.829 203.318 319.415 203.903 320.195 203.708L326.049 203.513C326.829 203.513 327.414 202.928 327.219 202.147V200.781C327.219 200.781 327.219 200.781 327.414 200.781C329.366 200.781 330.732 199.22 330.732 197.269C330.732 195.318 328.975 193.952 327.219 193.952ZM327.219 199.61L327.024 195.123C327.024 195.123 327.024 195.123 327.219 195.123C328.39 195.123 329.366 196.098 329.561 197.269C329.756 198.44 328.585 199.61 327.219 199.61Z" fill="#E06234"/>
<path d="M334.829 197.66C333.853 197.074 333.073 196.489 332.097 195.708C331.317 195.123 330.731 194.733 329.951 194.147C329.951 194.147 329.756 194.343 329.756 194.538C329.756 194.733 329.756 194.928 329.951 195.123C330.146 195.513 330.341 195.904 330.536 196.099C330.731 196.294 330.731 196.684 330.731 197.269C331.902 197.465 333.463 197.66 334.829 197.66Z" fill="url(#paint13_radial)"/>
<path d="M332.097 197.074C331.707 197.074 331.121 196.879 330.146 196.684C329.365 196.489 328.39 196.294 327.024 195.903C327.024 197.074 327.024 198.44 327.024 199.611C327.414 199.806 328 200.196 328.78 200.586C329.56 200.976 329.951 201.172 330.341 201.172C330.926 201.367 331.512 201.562 332.292 201.757L335.609 202.342L337.365 200.196C336.195 199.415 335.219 198.44 334.048 197.659C333.658 197.269 332.878 197.269 332.097 197.074Z" fill="#E0BB95"/>
<path d="M334.244 197.659C333.658 199.22 333.073 200.781 332.292 202.147C335.414 207.415 338.731 211.123 341.268 213.464C347.707 219.708 351.024 219.708 352 219.708C352.975 219.708 355.902 219.513 357.073 217.562C359.219 213.854 353.171 204.879 345.561 200.586C341.463 198.245 336.975 197.659 334.244 197.659Z" fill="url(#paint14_radial)"/>
<path d="M334.439 206.244C334.829 206.44 335.219 206.244 335.609 206.049C336.78 204.683 338.341 202.537 338.926 199.61C339.122 199.025 339.122 198.44 339.122 197.854C339.122 197.464 338.926 197.074 338.536 196.879C338.146 196.683 337.561 196.488 336.975 196.488C336.195 196.488 335.414 196.683 335.024 196.879C334.829 197.074 334.634 197.074 334.439 197.464C333.658 199.22 332.878 201.171 332.097 202.927C332.097 203.122 332.097 203.318 332.097 203.513C332.292 203.903 332.487 204.683 333.268 205.269C333.658 205.854 334.048 206.049 334.439 206.244Z" fill="#FFB900"/>
<path d="M319.414 184.586C319.609 184 319.999 183.415 320.78 183.22C321.365 183.025 322.146 183.025 322.731 183.415C322.926 183.61 322.926 183.805 322.731 183.805L322.536 184C321.951 184 321.56 184 321.17 184.196C320.78 184.391 320.39 184.586 319.999 184.976C319.804 185.171 319.609 184.976 319.609 184.976C319.414 184.781 319.414 184.781 319.414 184.586Z" fill="#2A353D"/>
<path d="M328 182.05C328.195 181.464 328.585 180.879 329.365 180.684C329.951 180.489 330.731 180.489 331.317 180.879C331.512 181.074 331.512 181.269 331.317 181.269L331.121 181.464C330.536 181.464 330.146 181.464 329.756 181.659C329.365 181.855 328.975 182.05 328.585 182.44C328.39 182.635 328.195 182.44 328.195 182.44C327.999 182.245 328 182.05 328 182.05Z" fill="#2A353D"/>
<path d="M364.292 271.805L249.17 271.61C248.39 271.61 247.609 271.024 247.609 270.049V248.585C247.609 247.805 248.195 247.024 249.17 247.024L364.292 247.22C365.073 247.22 365.853 247.805 365.853 248.781V270.244C365.658 271.22 365.073 271.805 364.292 271.805Z" fill="#CFC0E8"/>
<path d="M261.853 266.341H255.219C253.268 266.341 251.707 264.78 251.707 262.829V256.195C251.707 254.244 253.268 252.683 255.219 252.683H261.853C263.805 252.683 265.366 254.244 265.366 256.195V262.829C265.366 264.78 263.805 266.341 261.853 266.341Z" fill="#8661C5"/>
<path d="M331.707 263.805H277.073C276.487 263.805 275.902 263.22 275.902 262.635V256.586C275.902 256 276.487 255.415 277.073 255.415H331.707C332.292 255.415 332.877 256 332.877 256.586V262.635C332.877 263.415 332.292 263.805 331.707 263.805Z" fill="white"/>
<path d="M376.585 269.854C376.585 270.049 376.585 270.439 376.585 270.635C376.39 273.952 373.854 276.488 370.536 276.293C367.219 276.293 364.878 273.561 364.878 270.244C364.878 270.049 364.878 269.659 364.878 269.464L376.585 269.854Z" fill="#FFC733"/>
<path d="M371.512 244.683C373.559 244.683 375.219 243.023 375.219 240.976C375.219 238.928 373.559 237.269 371.512 237.269C369.464 237.269 367.805 238.928 367.805 240.976C367.805 243.023 369.464 244.683 371.512 244.683Z" fill="#FFC733"/>
<path d="M386.731 266.537C386.341 265.952 385.756 265.757 384.78 265.367C384.39 265.171 384 265.171 383.61 264.976C383.219 264.781 383.024 264.586 382.634 264.196C382.439 263.806 382.439 263.415 382.439 263.025L382.634 254.245C382.634 253.269 382.634 252.098 382.244 251.123C382.049 250.147 381.658 249.171 381.268 248.196C380.878 247.22 380.292 246.44 379.512 245.659C378.732 244.879 378.146 244.293 377.171 243.708C375.414 242.537 373.463 241.952 371.317 241.757C369.171 241.757 367.219 242.147 365.463 243.123C363.707 244.098 362.341 245.464 361.171 247.22C360 248.976 359.414 250.928 359.414 253.074L359.219 262.245C359.219 262.83 359.024 263.22 358.829 263.611C358.439 264.001 357.658 264.391 356.878 264.586C356.488 264.586 356.097 264.781 355.707 264.976C355.317 265.171 354.927 265.367 354.732 265.757C354.536 265.952 354.341 266.537 354.341 266.928C354.341 267.513 354.536 268.098 354.927 268.489C355.317 268.879 355.902 269.269 356.488 269.269L364.683 269.464C365.268 266.732 367.61 264.586 370.536 264.586C373.463 264.586 375.805 266.928 376.195 269.854L384.195 270.049C384.39 270.049 384.78 270.05 385.171 269.854C385.561 269.659 385.756 269.659 385.951 269.464C386.341 269.074 386.731 268.489 386.731 267.903C386.927 267.318 386.927 266.732 386.731 266.537Z" fill="#FFC733"/>
<path d="M376.585 269.854L365.073 269.464C365.659 266.732 368 264.586 370.927 264.586C373.854 264.781 376.195 266.927 376.585 269.854Z" fill="#FFB900"/>
<path d="M389.658 246.244C390.049 246.634 390.829 246.634 391.219 246.244L400.39 240.976C401.171 240.585 401.366 239.61 400.976 238.829C400.585 238.049 399.61 237.854 398.829 238.244L389.658 243.512C388.878 243.903 388.683 244.878 389.073 245.659C389.268 245.854 389.463 246.049 389.658 246.244Z" fill="#FFC733"/>
<path d="M382.244 239.025C382.829 239.025 383.414 238.829 383.805 238.244L389.463 229.464C389.853 228.683 389.658 227.903 389.073 227.317C388.292 226.927 387.512 227.122 386.927 227.708L381.268 236.488C380.878 237.268 381.073 238.049 381.658 238.634C381.658 239.025 382.048 239.025 382.244 239.025Z" fill="#FFC733"/>
<path d="M538.341 182.829H475.317V241.756H538.341V182.829Z" fill="#E1DFDD"/>
<path d="M536.39 184.78H477.073V233.366H536.39V184.78Z" fill="#CEE4AD"/>
<path d="M502.634 228.683C502.244 227.122 501.854 224.78 502.244 222.049C502.439 219.902 503.024 218.146 503.61 216.976C502.439 217.171 500.878 217.366 499.122 217.951C493.073 219.707 489.366 223.219 488.585 223.805C486.634 225.756 483.122 228.878 481.951 233.366H492.293C495.805 229.268 501.268 228.683 502.634 228.683Z" fill="url(#paint15_radial)"/>
<path d="M512.585 194.927L498.341 197.853L497.17 197.463L498.146 196.683L512.39 193.756C512.585 193.756 512.975 193.951 512.975 194.146C512.975 194.731 512.78 194.927 512.585 194.927Z" fill="#EE8F94"/>
<path d="M505.171 198.829C507.757 198.829 509.854 196.732 509.854 194.146C509.854 191.56 507.757 189.463 505.171 189.463C502.584 189.463 500.488 191.56 500.488 194.146C500.488 196.732 502.584 198.829 505.171 198.829Z" fill="url(#paint16_linear)"/>
<path d="M507.317 214.048C512.382 214.048 516.487 209.943 516.487 204.878C516.487 199.813 512.382 195.707 507.317 195.707C502.252 195.707 498.146 199.813 498.146 204.878C498.146 209.943 502.252 214.048 507.317 214.048Z" fill="#59453C"/>
<path d="M516.683 217.756C515.902 217.561 514.536 217.17 513.171 216.975C512.39 216.78 512 216.195 512 215.609V210.536L506.146 210.731V215.804C506.146 216.39 505.756 216.975 505.171 216.975C503.805 217.17 502.634 217.365 501.268 217.951C501.268 217.951 502.634 222.439 506.146 223.804C507.512 224.39 510.634 224.585 512 224.195C515.122 222.829 516.683 217.756 516.683 217.756Z" fill="url(#paint17_linear)"/>
<path d="M520.585 230.439C520.585 225.756 519.609 221.853 516.683 219.317C516.292 219.122 516.097 218.731 515.707 218.536C512.585 219.902 507.317 221.073 501.658 218.536C501.463 218.731 500.683 219.317 500.292 219.707C497.561 222.243 496.78 226.341 496.78 230.634V233.365H520.39L520.585 230.439Z" fill="#FAF9F8"/>
<path d="M509.331 214.506C513.027 213.755 515.31 209.636 514.43 205.306C513.55 200.976 509.84 198.075 506.143 198.826C502.447 199.577 500.164 203.697 501.044 208.027C501.924 212.356 505.634 215.257 509.331 214.506Z" fill="#E0BB95"/>
<path d="M500.487 207.805C500.097 208.195 500.097 208.586 500.097 209.171C500.097 209.756 500.292 210.147 500.683 210.342C501.073 210.732 501.463 210.732 502.048 210.732C502.634 210.732 503.024 210.537 503.219 210.147C503.609 209.756 503.609 209.366 503.609 208.781C503.609 208.195 503.219 207.805 503.024 207.61C502.634 207.415 502.244 207.22 501.658 207.22C501.268 207.22 500.878 207.415 500.487 207.805Z" fill="#E0BB95"/>
<path d="M512.585 205.463C512.195 205.854 512.195 206.244 512.195 206.829C512.195 207.415 512.39 207.805 512.78 208C513.17 208.39 513.561 208.39 514.146 208.39C514.731 208.39 515.122 208.195 515.317 207.805C515.707 207.415 515.707 207.024 515.707 206.439C515.707 205.854 515.317 205.463 515.122 205.268C514.731 205.073 514.341 204.878 513.756 204.878C513.366 204.878 512.975 205.073 512.585 205.463Z" fill="#E0BB95"/>
<path d="M500.097 201.366C498.927 203.903 498.927 206.244 500.097 208.586C500.878 206.83 502.049 207.415 503.219 206.634C504.975 205.854 506.927 205.464 508.097 203.708C509.463 201.561 509.073 198.439 508.683 197.073C508.683 196.683 502.049 197.464 500.097 201.366Z" fill="#594539"/>
<path d="M508.683 198.439C508.293 200.195 509.658 205.658 515.512 204.682C515.122 202.341 514.927 200 513.171 198.439C511.61 197.268 509.073 195.902 508.683 198.439Z" fill="#594539"/>
<path d="M507.317 205.268L508.878 211.707L512.39 210.926L510.829 204.487L507.317 205.268Z" fill="url(#paint18_radial)"/>
<path d="M511.61 209.756C510.049 210.146 508.683 209.17 508.293 207.609C507.902 206.048 508.878 204.682 510.439 204.292C512 203.902 513.366 204.877 513.756 206.438C513.951 207.219 513.756 207.999 513.366 208.585C512.976 209.17 512.39 209.756 511.61 209.756ZM510.634 205.073C509.463 205.268 508.683 206.438 509.073 207.609C509.268 208.78 510.439 209.365 511.61 209.17C512.195 208.975 512.585 208.78 512.976 208.195C513.366 207.804 513.366 207.219 513.171 206.634C512.78 205.463 511.805 204.877 510.634 205.073Z" fill="#FAF9F8"/>
<path d="M508.292 207.22C508.292 207.22 508.488 208 509.268 208.586C509.658 208.781 509.658 209.366 509.463 209.756C509.268 210.147 508.488 210.537 508.488 210.732L507.317 210.927L506.731 207.415L508.292 207.22Z" fill="#E0BB95"/>
<path d="M505.756 211.122C504.195 211.512 502.829 210.537 502.439 208.976C502.049 207.415 503.024 206.049 504.585 205.659C505.366 205.463 506.146 205.659 506.732 206.049C507.317 206.439 507.707 207.024 507.902 207.805C508.098 209.366 507.122 210.732 505.756 211.122ZM504.781 206.244C503.61 206.439 502.829 207.61 503.22 208.781C503.415 209.951 504.585 210.537 505.756 210.341C506.927 210.146 507.512 208.976 507.317 207.805C507.122 207.22 506.927 206.829 506.342 206.439C505.756 206.244 505.171 206.244 504.781 206.244Z" fill="#FAF9F8"/>
<path d="M507.512 207.61C507.317 207.61 507.122 207.61 507.122 207.414C507.122 207.219 507.122 207.024 507.317 207.024L508.487 206.829C508.683 206.829 508.878 206.829 508.878 207.024C508.878 207.219 508.878 207.414 508.683 207.414L507.512 207.61Z" fill="#FAF9F8"/>
<path d="M509.853 211.903C509.658 212.098 509.463 212.293 509.268 212.293C509.073 212.488 508.683 212.488 508.487 212.488C508.292 212.488 507.902 212.488 507.707 212.293C507.512 212.098 507.317 211.903 507.122 211.708C507.122 211.512 507.122 211.317 507.122 211.317H507.317C507.512 211.317 507.707 211.513 507.902 211.513C508.097 211.513 508.292 211.513 508.487 211.513C508.683 211.513 508.878 211.513 509.073 211.513C509.268 211.513 509.463 211.513 509.658 211.317C509.853 211.317 510.048 211.317 510.048 211.513C510.048 211.708 509.853 211.903 509.853 211.903Z" fill="#BF8F68"/>
<path d="M504.585 217.561C504.585 217.171 504.195 216.78 503.805 216.78C498.537 217.561 497.366 219.317 496.585 225.171C496.585 225.366 496.585 225.951 496.585 226.927C496.585 227.902 496.39 229.268 496.39 229.463C496.39 230.829 496.39 232 496.39 233.366H504.39C504.39 227.902 504.39 222.634 504.585 217.561Z" fill="#FFB900"/>
<path d="M522.341 228.878C522.536 228.878 522.732 229.073 523.902 229.463C524.097 229.659 524.488 229.659 524.878 229.659C525.073 229.659 527.415 229.854 528.195 228.878C529.171 227.512 526.634 222.829 522.927 219.902C519.415 217.366 515.512 216.976 513.171 216.976C513.171 223.805 512.78 229.463 512.39 233.366H521.951C521.756 230.634 521.951 228.878 522.341 228.878Z" fill="url(#paint19_radial)"/>
<path d="M509.073 215.024V214.439C509.073 214.048 508.683 213.658 508.292 213.658H504.39C504 213.658 503.609 214.048 503.609 214.439V220.292C503.609 220.683 504 221.073 504.39 221.073H508.292C508.683 221.073 509.073 220.683 509.073 220.292V219.512C510.243 219.512 511.219 218.536 511.219 217.17C511.219 216 510.243 214.829 509.073 215.024ZM509.073 218.536C509.073 218.731 509.073 218.731 509.073 218.536L508.878 215.609C509.658 215.609 510.439 216.195 510.439 216.975C510.439 217.756 509.853 218.536 509.073 218.536Z" fill="#E06234"/>
<path d="M513.951 217.366C513.365 216.976 512.78 216.586 512.195 216.195C511.804 215.805 511.219 215.61 510.829 215.22L510.634 215.415C510.634 215.61 510.634 215.61 510.829 215.805C511.024 216 511.024 216.39 511.219 216.39C511.219 216.586 511.414 216.781 511.219 217.171C512.195 217.366 513.17 217.366 513.951 217.366Z" fill="url(#paint20_radial)"/>
<path d="M512.39 216.976C512.195 216.976 511.804 216.78 511.024 216.585C510.439 216.39 509.853 216.195 509.073 216C509.073 216.78 509.073 217.561 509.073 218.537C509.463 218.732 509.658 218.927 510.243 219.122C510.634 219.317 511.024 219.512 511.219 219.512C511.609 219.707 512 219.707 512.585 219.902L514.731 220.293L515.902 218.927C515.122 218.341 514.536 217.756 513.756 217.171C513.17 217.171 512.78 217.171 512.39 216.976Z" fill="#E0BB95"/>
<path d="M513.756 217.365C513.366 218.341 512.976 219.316 512.585 220.292C514.732 223.804 516.878 226.146 518.439 227.902C522.537 231.999 524.878 231.999 525.463 231.999C526.049 231.999 528 231.999 528.781 230.634C530.342 228.097 526.244 222.243 521.366 219.512C518.439 217.755 515.512 217.365 513.756 217.365Z" fill="url(#paint21_radial)"/>
<path d="M513.756 223.024C513.951 223.219 514.341 223.024 514.536 222.829C515.317 222.048 516.292 220.487 516.683 218.536C516.683 218.146 516.878 217.756 516.878 217.365C516.878 217.17 516.683 216.78 516.487 216.78C516.292 216.585 515.902 216.585 515.512 216.585C514.927 216.585 514.536 216.78 514.146 216.78C513.951 216.78 513.951 216.975 513.756 217.17C513.17 218.341 512.78 219.512 512.195 220.683C512.195 220.878 512.195 220.878 512.195 221.073C512.195 221.463 512.39 221.853 512.975 222.244C513.17 222.829 513.561 222.829 513.756 223.024Z" fill="#FFB900"/>
<path d="M504 208.781C504.195 208.39 504.39 208 504.78 208C505.171 207.805 505.756 207.805 505.951 208.195C506.146 208.195 506.146 208.39 505.951 208.586H505.756C505.366 208.586 505.17 208.586 504.975 208.781C504.78 208.781 504.585 208.976 504.195 209.171C504 209.171 504 209.171 503.805 209.171C504 208.781 504 208.781 504 208.781Z" fill="#2A353D"/>
<path d="M509.659 207.024C509.854 206.634 510.049 206.243 510.439 206.243C510.829 206.048 511.415 206.048 511.61 206.439C511.805 206.439 511.805 206.634 511.61 206.829H511.415C511.024 206.829 510.829 206.829 510.634 207.024C510.439 207.024 510.244 207.219 509.854 207.414C509.658 207.414 509.659 207.414 509.463 207.414C509.659 207.219 509.659 207.024 509.659 207.024Z" fill="#2A353D"/>
<path d="M536.975 177.562H475.902C475.317 177.562 474.926 177.171 474.926 176.586V162.537C474.926 161.952 475.317 161.562 475.902 161.562H536.975C537.56 161.562 537.951 161.952 537.951 162.537V176.586C537.951 177.171 537.56 177.562 536.975 177.562Z" fill="#CFC0E8"/>
<path d="M542.244 159.025C542.244 159.22 542.244 159.415 542.244 159.611C542.244 162.147 540.097 164.098 537.756 163.903C535.219 163.903 533.268 161.757 533.463 159.415C533.463 159.22 533.463 159.025 533.463 158.83L542.244 159.025Z" fill="#FFC733"/>
<path d="M538.341 139.903C539.85 139.903 541.073 138.68 541.073 137.171C541.073 135.662 539.85 134.439 538.341 134.439C536.832 134.439 535.609 135.662 535.609 137.171C535.609 138.68 536.832 139.903 538.341 139.903Z" fill="#FFC733"/>
<path d="M550.048 156.488C549.658 156.098 549.268 155.902 548.488 155.707C548.097 155.707 547.902 155.512 547.707 155.512C547.317 155.317 547.122 155.122 547.122 154.927C546.927 154.732 546.926 154.341 546.926 153.951L547.122 147.317C547.122 146.537 547.122 145.756 546.926 144.976C546.731 144.195 546.536 143.415 546.146 142.829C545.756 142.049 545.366 141.463 544.78 140.878C544.195 140.293 543.609 139.707 543.024 139.317C541.658 138.341 540.097 137.951 538.536 137.951C536.975 137.951 535.414 138.341 534.048 139.122C532.683 139.902 531.707 140.878 530.731 142.244C529.951 143.61 529.561 145.171 529.366 146.732L529.17 153.756C529.17 154.146 528.975 154.537 528.975 154.732C528.585 155.122 528.195 155.317 527.414 155.512C527.024 155.512 526.829 155.707 526.634 155.707C526.244 155.902 526.048 156.098 525.853 156.293C525.658 156.488 525.658 156.878 525.658 157.268C525.658 157.658 525.853 158.244 526.244 158.439C526.634 158.829 527.024 159.024 527.414 159.024L533.658 159.219C534.048 157.073 535.805 155.512 538.146 155.512C540.487 155.512 542.244 157.268 542.439 159.415L548.683 159.61C548.878 159.61 549.073 159.61 549.268 159.415C549.463 159.415 549.658 159.219 549.853 159.024C550.244 158.634 550.439 158.244 550.439 157.854C550.244 156.878 550.244 156.683 550.048 156.488Z" fill="#FFC733"/>
<path d="M542.243 159.025L533.463 158.829C533.853 156.683 535.609 155.122 537.951 155.122C540.292 155.122 542.048 156.878 542.243 159.025Z" fill="#FFB900"/>
<path d="M537.756 246.049H475.902V279.61H537.756V246.049Z" fill="#FFD590"/>
<path d="M502.048 251.122H478.634V274.537H502.048V251.122Z" fill="#F7B548"/>
<path d="M502.048 274.536V265.561H490.146H478.634V274.536H502.048Z" fill="#C8C6C4"/>
<path d="M533.073 252.683H505.17V260.097H533.073V252.683Z" fill="#FFE5B9"/>
<path d="M531.317 264.585H505.17V272H531.317V264.585Z" fill="#FFE5B9"/>
<path d="M488.877 259.805C489.073 260 489.463 260 489.658 260.195C490.048 260.195 490.243 260.195 490.634 260.195C491.024 260.195 491.414 260 491.414 259.805V259.609C491.414 259.609 491.414 259.414 491.219 259.414H491.024C490.829 259.609 490.243 259.609 489.658 259.414C489.463 259.414 489.073 259.219 489.073 259.219C488.877 259.219 488.682 259.024 488.487 258.829C488.292 258.634 488.292 258.634 488.097 258.829C488.097 258.829 487.902 259.024 488.097 259.024C488.292 259.219 488.487 259.609 488.877 259.805Z" fill="#9A6541"/>
<path d="M497.658 264.293C497.658 263.317 497.853 254.927 497.853 254.927L482.829 255.512V264.488C482.829 265.463 481.463 265.658 481.463 265.658C482.439 266.829 486.341 268.39 490.634 268C495.317 268 497.658 266.439 499.024 265.463C498.829 265.463 497.658 265.658 497.658 264.293Z" fill="#9A6541"/>
<path d="M496.683 256.878C497.073 257.269 497.463 257.464 497.853 257.464C498.244 257.464 498.634 257.269 499.024 256.878C499.219 256.488 499.414 256.098 499.414 255.513C499.414 254.927 499.219 254.537 498.829 254.342C498.439 253.952 498.048 253.756 497.658 253.952C497.268 253.952 496.878 254.147 496.487 254.537C496.097 254.927 496.097 255.317 496.097 255.903C496.097 256.098 496.292 256.488 496.683 256.878Z" fill="#9A6541"/>
<path d="M481.268 255.707C481.268 256.293 481.463 256.683 481.853 256.878C482.243 257.268 482.633 257.464 483.024 257.268C483.414 257.268 483.804 257.073 484.194 256.683C484.39 256.293 484.585 255.903 484.585 255.317C484.585 254.732 484.389 254.342 483.999 254.146C483.609 253.756 483.219 253.561 482.829 253.756C482.438 253.951 482.048 253.951 481.658 254.342C481.268 254.732 481.268 255.317 481.268 255.707Z" fill="#9A6541"/>
<path d="M482.634 253.951V258.439C482.634 260.195 483.414 261.951 484.78 263.317C486.146 264.488 487.707 265.073 489.463 265.073L491.609 264.878C493.366 264.878 494.926 264.097 496.097 262.732C497.268 261.366 497.853 260.195 497.853 258.244L497.658 253.756C497.658 251.805 496.878 250.244 495.512 248.878C494.146 247.512 492.78 246.927 490.829 246.927H489.073C487.122 246.927 485.756 247.902 484.39 249.268C483.219 250.829 482.634 252 482.634 253.951Z" fill="#9A6541"/>
<path opacity="0.75" d="M496.975 253.854V255.219C496.975 256.195 496.78 256.975 495.999 257.561C495.414 258.146 494.633 258.536 493.853 258.732C492.292 258.927 492.097 257.951 490.146 258.146C488.39 258.146 487.414 258.927 486.243 258.927C485.463 258.927 484.877 258.536 484.292 257.951C483.707 257.366 483.511 256.78 483.511 256V254.244H482.731L482.926 258.927C482.926 260.683 483.707 262.244 485.072 263.414C486.438 264.585 487.609 265.171 489.17 265.171H491.902C493.853 265.171 495.219 264.39 496.39 263.024C497.56 261.658 498.146 260.097 498.146 258.341L497.95 254.244L496.975 253.854Z" fill="url(#paint22_linear)"/>
<path d="M493.566 254.73C493.588 254.089 493.301 253.559 492.924 253.546C492.547 253.533 492.223 254.042 492.201 254.682C492.179 255.323 492.466 255.853 492.843 255.866C493.22 255.88 493.544 255.371 493.566 254.73Z" fill="#33312D"/>
<path d="M487.712 254.73C487.735 254.089 487.447 253.559 487.07 253.546C486.693 253.533 486.37 254.042 486.347 254.682C486.325 255.323 486.613 255.853 486.99 255.866C487.367 255.88 487.69 255.371 487.712 254.73Z" fill="#33312D"/>
<path d="M554.341 140.879C554.732 141.074 555.122 141.074 555.512 140.879L562.341 136.781C562.927 136.391 563.122 135.806 562.732 135.22C562.341 134.635 561.756 134.44 561.171 134.83L554.341 138.928C553.756 139.318 553.561 139.903 553.951 140.489C554.146 140.684 554.146 140.684 554.341 140.879Z" fill="#FFC733"/>
<path d="M548.487 135.415C548.878 135.415 549.268 135.22 549.658 134.83L553.951 128C554.341 127.415 554.146 126.83 553.561 126.439C552.975 126.049 552.39 126.244 552 126.83L547.707 133.659C547.317 134.244 547.512 134.83 548.097 135.22C548.097 135.415 548.292 135.415 548.487 135.415Z" fill="#FFC733"/>
<path d="M484.292 174.244H480C478.829 174.244 477.658 173.269 477.658 171.903V167.61C477.658 166.439 478.634 165.269 480 165.269H484.292C485.463 165.269 486.634 166.244 486.634 167.61V171.903C486.634 173.269 485.463 174.244 484.292 174.244Z" fill="#8661C5"/>
<path d="M529.366 172.488H494.049C493.658 172.488 493.268 172.098 493.268 171.707V167.805C493.268 167.415 493.658 167.024 494.049 167.024H529.366C529.756 167.024 530.146 167.415 530.146 167.805V171.707C530.146 172.293 529.756 172.488 529.366 172.488Z" fill="white"/>
<path d="M240.39 190.634C239.219 193.561 237.073 196.098 234.536 198.049C234.146 198.439 233.951 199.025 234.341 199.415C236.683 201.756 238.439 204.683 239.414 208C239.609 208.781 240.78 208.976 240.975 208C242.146 204.878 244.292 202.146 246.829 200C247.219 199.61 247.219 199.025 246.829 198.634C244.487 196.683 242.536 193.951 241.756 190.829C241.756 189.854 240.78 189.854 240.39 190.634Z" fill="#797673"/>
<path d="M252.878 218.537C252.292 220.098 251.317 221.268 249.951 222.244C249.756 222.439 249.756 222.634 249.951 222.829C251.122 224 252.097 225.366 252.488 227.122C252.683 227.512 253.073 227.512 253.268 227.122C253.853 225.561 254.829 224.195 256.195 223.22C256.39 223.024 256.39 222.829 256.195 222.634C255.024 221.659 254.049 220.293 253.658 218.732C253.463 218.146 253.073 218.146 252.878 218.537Z" fill="#949DAA"/>
<path d="M549.853 145.756C549.853 145.756 549.853 148.878 549.853 150.049C549.853 154.146 550.049 155.317 550.244 157.658C550.439 161.171 550.049 162.146 549.853 173.853C549.658 196.488 549.658 212.292 543.219 229.853C540.097 238.439 536.195 244.878 528.585 257.756C521.756 269.268 514.146 277.073 509.073 283.902C508.488 284.878 508.097 285.853 508.488 287.024C509.463 290.927 511.024 296.195 511.805 300.097C512.195 302.244 514.341 303.61 516.488 303.024C524.683 301.073 562.341 291.317 576.195 259.512C597.658 210.146 553.366 147.317 549.853 145.756Z" fill="#A7CBF6"/>
<defs>
<radialGradient id="paint0_radial" cx="0" cy="0" r="1" gradientUnits="userSpaceOnUse" gradientTransform="translate(98.6339 265.843) scale(23.8021)">
<stop offset="0.5694" stop-color="#6ECFC3"/>
<stop offset="0.7396" stop-color="#79D1C6"/>
<stop offset="0.9993" stop-color="#92D5CD"/>
</radialGradient>
<radialGradient id="paint1_radial" cx="0" cy="0" r="1" gradientUnits="userSpaceOnUse" gradientTransform="translate(46.8217 258.096) scale(67.9255)">
<stop offset="0.1081" stop-color="#797673"/>
<stop offset="0.1316" stop-color="#7F7C79"/>
<stop offset="0.2982" stop-color="#A29F9D"/>
<stop offset="0.466" stop-color="#BEBBB9"/>
<stop offset="0.6336" stop-color="#D1CFCD"/>
<stop offset="0.8009" stop-color="#DDDBD9"/>
<stop offset="0.9676" stop-color="#E1DFDD"/>
</radialGradient>
<radialGradient id="paint2_radial" cx="0" cy="0" r="1" gradientUnits="userSpaceOnUse" gradientTransform="translate(458.918 326.258) scale(27.6185)">
<stop stop-color="#33312D"/>
<stop offset="1" stop-color="#605D5A"/>
</radialGradient>
<radialGradient id="paint3_radial" cx="0" cy="0" r="1" gradientUnits="userSpaceOnUse" gradientTransform="translate(445.479 128.413) scale(101.404)">
<stop stop-color="#73ACF1"/>
<stop offset="1" stop-color="#A7CBF6"/>
</radialGradient>
<linearGradient id="paint4_linear" x1="448.414" y1="98.5539" x2="449.038" y2="81.495" gradientUnits="userSpaceOnUse">
<stop stop-color="#594539"/>
<stop offset="1" stop-color="#9B643D"/>
</linearGradient>
<radialGradient id="paint5_radial" cx="0" cy="0" r="1" gradientUnits="userSpaceOnUse" gradientTransform="translate(443.208 96.8387) rotate(2.14097) scale(16.6344 14.5922)">
<stop stop-color="#594539"/>
<stop offset="1" stop-color="#9B643D" stop-opacity="0"/>
</radialGradient>
<radialGradient id="paint6_radial" cx="0" cy="0" r="1" gradientUnits="userSpaceOnUse" gradientTransform="translate(541.401 59.1691) scale(145.865)">
<stop stop-color="#E3646A"/>
<stop offset="0.0690595" stop-color="#E66F66"/>
<stop offset="0.3015" stop-color="#ED8D59"/>
<stop offset="0.5287" stop-color="#F3A34F"/>
<stop offset="0.7463" stop-color="#F6B04A"/>
<stop offset="0.9438" stop-color="#F7B548"/>
</radialGradient>
<linearGradient id="paint7_linear" x1="243.576" y1="143.19" x2="243.587" y2="134.87" gradientUnits="userSpaceOnUse">
<stop offset="0.0143947" stop-color="#48372D"/>
<stop offset="0.4807" stop-color="#59453A"/>
<stop offset="1" stop-color="#9A6541"/>
</linearGradient>
<radialGradient id="paint8_radial" cx="0" cy="0" r="1" gradientUnits="userSpaceOnUse" gradientTransform="translate(313.92 224.867) rotate(-0.255952) scale(16.7851)">
<stop stop-color="#CD8500"/>
<stop offset="0.999" stop-color="#FFB900"/>
</radialGradient>
<linearGradient id="paint9_linear" x1="317.161" y1="155.711" x2="324.783" y2="167.736" gradientUnits="userSpaceOnUse">
<stop offset="0.2689" stop-color="#594539"/>
<stop offset="0.8111" stop-color="#463228"/>
</linearGradient>
<linearGradient id="paint10_linear" x1="326.492" y1="185.904" x2="326.934" y2="198.011" gradientUnits="userSpaceOnUse">
<stop offset="0.06676" stop-color="#9B643D"/>
<stop offset="0.8469" stop-color="#E0BB95"/>
</linearGradient>
<radialGradient id="paint11_radial" cx="0" cy="0" r="1" gradientUnits="userSpaceOnUse" gradientTransform="translate(325.714 183.986) rotate(168.432) scale(4.20499 4.16719)">
<stop offset="0.0829848" stop-color="#9B643D"/>
<stop offset="0.8311" stop-color="#E0BB95"/>
</radialGradient>
<radialGradient id="paint12_radial" cx="0" cy="0" r="1" gradientUnits="userSpaceOnUse" gradientTransform="translate(344.545 209.481) rotate(-0.255951) scale(12.4087)">
<stop stop-color="#CD8500"/>
<stop offset="0.999" stop-color="#FFB900"/>
</radialGradient>
<radialGradient id="paint13_radial" cx="0" cy="0" r="1" gradientUnits="userSpaceOnUse" gradientTransform="translate(330.076 199.175) rotate(-0.25595) scale(6.85886)">
<stop stop-color="#9B643D"/>
<stop offset="0.1994" stop-color="#BE9069"/>
<stop offset="0.3709" stop-color="#D7AF89"/>
<stop offset="0.4659" stop-color="#E0BB95"/>
</radialGradient>
<radialGradient id="paint14_radial" cx="0" cy="0" r="1" gradientUnits="userSpaceOnUse" gradientTransform="translate(331.682 199.667) rotate(-34.2828) scale(9.62653)">
<stop stop-color="#CD8500"/>
<stop offset="0.999" stop-color="#FFB900"/>
</radialGradient>
<radialGradient id="paint15_radial" cx="0" cy="0" r="1" gradientUnits="userSpaceOnUse" gradientTransform="translate(500.212 235.172) rotate(0.0647868) scale(11.0279)">
<stop stop-color="#CD8500"/>
<stop offset="0.999" stop-color="#FFB900"/>
</radialGradient>
<linearGradient id="paint16_linear" x1="502.442" y1="189.859" x2="507.406" y2="197.788" gradientUnits="userSpaceOnUse">
<stop offset="0.2689" stop-color="#594539"/>
<stop offset="0.8111" stop-color="#463228"/>
</linearGradient>
<linearGradient id="paint17_linear" x1="508.615" y1="209.619" x2="508.861" y2="217.574" gradientUnits="userSpaceOnUse">
<stop offset="0.06676" stop-color="#9B643D"/>
<stop offset="0.8469" stop-color="#E0BB95"/>
</linearGradient>
<radialGradient id="paint18_radial" cx="0" cy="0" r="1" gradientUnits="userSpaceOnUse" gradientTransform="translate(508.099 207.929) rotate(168.754) scale(2.76287 2.73804)">
<stop offset="0.0829848" stop-color="#9B643D"/>
<stop offset="0.8311" stop-color="#E0BB95"/>
</radialGradient>
<radialGradient id="paint19_radial" cx="0" cy="0" r="1" gradientUnits="userSpaceOnUse" gradientTransform="translate(520.39 225.176) rotate(0.0647867) scale(8.15279)">
<stop stop-color="#CD8500"/>
<stop offset="0.999" stop-color="#FFB900"/>
</radialGradient>
<radialGradient id="paint20_radial" cx="0" cy="0" r="1" gradientUnits="userSpaceOnUse" gradientTransform="translate(510.921 218.352) rotate(0.0647876) scale(4.50627)">
<stop stop-color="#9B643D"/>
<stop offset="0.1994" stop-color="#BE9069"/>
<stop offset="0.3709" stop-color="#D7AF89"/>
<stop offset="0.4659" stop-color="#E0BB95"/>
</radialGradient>
<radialGradient id="paint21_radial" cx="0" cy="0" r="1" gradientUnits="userSpaceOnUse" gradientTransform="translate(511.827 218.294) rotate(-33.965) scale(6.32484)">
<stop stop-color="#CD8500"/>
<stop offset="0.999" stop-color="#FFB900"/>
</radialGradient>
<linearGradient id="paint22_linear" x1="490.241" y1="262.581" x2="490.252" y2="254.261" gradientUnits="userSpaceOnUse">
<stop offset="0.0143947" stop-color="#48372D"/>
<stop offset="0.4807" stop-color="#59453A"/>
<stop offset="1" stop-color="#9A6541"/>
</linearGradient>
</defs>
</svg>
