<svg xmlns="http://www.w3.org/2000/svg" width="250" height="70" fill="none"><path fill="#EF8F95" d="m25.687 39.145.32 2.62a.27.27 0 0 0 .326.229l1.779-.391a.27.27 0 0 0 .206-.292l-.332-2.894a.263.263 0 0 0-.369-.217l-1.771.66a.261.261 0 0 0-.16.285Z"/><path fill="#3CC1F4" d="M11 56.787s1.6.522 2.614 3.398l2.388-1.024A7.32 7.32 0 0 0 13.287 55L11 56.787Z"/><path fill="#FFD590" d="M15.817 15s-.81 2.163-4.817 3.374l1.267 3.34a10.06 10.06 0 0 0 5.87-3.486L15.817 15Z"/><path fill="#EF8F95" d="M159 65.36s1.575-.968 4.706.238l.851-2.713a8.06 8.06 0 0 0-5.4-.697L159 65.359Z"/><path fill="#F7B547" d="m169.006 40.836.609 4.97a.505.505 0 0 0 .213.352.514.514 0 0 0 .403.081l3.374-.741a.51.51 0 0 0 .392-.553l-.63-5.488a.496.496 0 0 0-.7-.413l-3.36 1.253a.5.5 0 0 0-.301.539Z"/><path fill="#3CC1F4" d="M220.333 35.841s-.034-1.681 2.349-3.586l-1.752-1.918a7.32 7.32 0 0 0-3.037 3.933l2.44 1.571Z"/><path fill="#DAD7F6" d="M184 13.736s1.743-1.07 5.208.264l.936-3.022a8.878 8.878 0 0 0-5.975-.767L184 13.736Z"/><path fill="#F7B547" d="m52.003 60.116.376 3.038a.313.313 0 0 0 .127.215.307.307 0 0 0 .245.05l2.063-.449a.31.31 0 0 0 .244-.338l-.386-3.354a.321.321 0 0 0-.151-.233.32.32 0 0 0-.276-.024l-2.05.766a.311.311 0 0 0-.192.33ZM226.757 14.37l2.491 3.298a.422.422 0 0 0 .294.166.416.416 0 0 0 .321-.107l2.109-1.918a.425.425 0 0 0 .057-.56l-2.716-3.663a.429.429 0 0 0-.674-.011l-1.879 2.28a.422.422 0 0 0-.003.514Z"/><path fill="#3CC1F4" d="m56.002 11.751.252 2.03a.201.201 0 0 0 .163.177.202.202 0 0 0 .085-.002l1.381-.3a.209.209 0 0 0 .16-.226l-.257-2.242a.203.203 0 0 0-.1-.159.206.206 0 0 0-.186-.012l-1.372.514a.207.207 0 0 0-.126.22Z"/><path fill="#EF8F95" d="m230.377 55.672 1.233 1.633a.203.203 0 0 0 .303.026l1.046-.95a.212.212 0 0 0 .026-.276l-1.344-1.813a.205.205 0 0 0-.259-.067.206.206 0 0 0-.075.062l-.931 1.132a.208.208 0 0 0-.042.127c0 .045.015.09.043.126ZM197.204 24.176l1.231 1.634a.204.204 0 0 0 .147.08.212.212 0 0 0 .159-.053l1.042-.951a.201.201 0 0 0 .066-.133.203.203 0 0 0-.04-.143l-1.341-1.814a.214.214 0 0 0-.166-.084.206.206 0 0 0-.166.08l-.933 1.13a.201.201 0 0 0-.042.127c0 .046.015.09.043.127Z"/><path fill="#FFD590" d="M50.69 30.48s1.761.078 3.591 2.7l2.125-1.716a7.672 7.672 0 0 0-3.912-3.431l-1.804 2.448Z"/><path fill="#3CC1F4" d="M192.489 57.297s1.759.129 3.514 2.8l2.173-1.645a7.67 7.67 0 0 0-3.814-3.548l-1.873 2.393Z"/><path fill="#E1DFDD" d="M66.996 44.624a130.073 130.073 0 0 0-4.287-22.295 1.422 1.422 0 0 0-.942-.948c.186.171.322.39.393.632a130.074 130.074 0 0 1 4.287 22.295 1.368 1.368 0 0 1-1.124 1.455c-7.359 1.3-14.724 2.6-22.097 3.9-.162.03-.328.025-.489-.011a1.135 1.135 0 0 0 1.038.327c7.372-1.3 14.738-2.6 22.097-3.9a1.377 1.377 0 0 0 1.124-1.455Z"/><path fill="#fff" d="M43.226 49.663c7.373-1.3 14.739-2.6 22.097-3.9a1.369 1.369 0 0 0 1.124-1.455 130.064 130.064 0 0 0-4.287-22.295 1.421 1.421 0 0 0-1.57-.998L38.941 24.88a1.14 1.14 0 0 0-.932.965c-.021.158-.009.319.037.472a129.469 129.469 0 0 1 3.837 22.33 1.096 1.096 0 0 0 .853 1.006c.161.036.327.039.489.01Zm.4-2.094c0-.012-.003-.022-.004-.034-.145-1.555-.318-3.11-.522-4.663a130.05 130.05 0 0 0-3.12-16.06l20.618-3.734a129.534 129.534 0 0 1 1.828 7.386c.96 4.407 1.69 8.86 2.184 13.343-6.988 1.254-13.983 2.508-20.985 3.762Z"/><path fill="#E4E4ED" d="M52.932 41.248c2.442-2.823 3.445-6.28 5.307-8.516-1.682.302-3.367.603-5.053.904a2.73 2.73 0 0 1-2.384-.748 2.824 2.824 0 0 1-.788-1.43 2.547 2.547 0 0 1 1.045-2.707c.285-.194.607-.33.945-.396a3.072 3.072 0 0 1 2.369-1.973c.751-.12 1.522 0 2.2.342.68.343 1.231.892 1.578 1.567.56-.054 1.12.098 1.575.427.456.328.776.81.9 1.357.06.272.066.553.02.827a6.036 6.036 0 0 1 1.237-.36c.19-.033.37-.058.544-.077a133.798 133.798 0 0 0-1.828-7.385L39.98 26.812a130.049 130.049 0 0 1 3.12 16.06c2.15-1.945 3.686-3.437 5.289-3.724 1.51-.267 2.863.82 4.543 2.1Zm-7.274-3.663a1.09 1.09 0 0 1-1.104-.49 1.103 1.103 0 0 1 .328-1.508c.12-.078.254-.13.395-.155l1.043-.187a1.893 1.893 0 0 1 1.454-1.225 1.966 1.966 0 0 1 1.457.323 1.953 1.953 0 0 1 .823 1.346 1.097 1.097 0 0 1-.878 1.267l-2.344.419-1.174.21Z"/><path fill="url(#a)" d="M52.932 41.248c-1.68-1.28-3.033-2.366-4.544-2.1-1.602.288-3.137 1.779-5.29 3.723.202 1.554.376 3.109.523 4.665 2.085-1.011 6.49-3.312 8.813-5.74.174-.18.338-.363.498-.547Z"/><path fill="#DAD9ED" d="M60.625 30.075a2.301 2.301 0 0 0-.899-1.357 2.317 2.317 0 0 0-1.575-.427 3.596 3.596 0 0 0-1.577-1.566 3.614 3.614 0 0 0-2.2-.342 3.088 3.088 0 0 0-2.368 1.973 2.569 2.569 0 0 0-1.659 1.13 2.55 2.55 0 0 0-.332 1.974 2.824 2.824 0 0 0 1.889 2.09c.415.13.855.16 1.283.086l5.054-.904a6.16 6.16 0 0 1 2.404-1.832c.047-.274.04-.554-.02-.825ZM49.877 36.506a1.097 1.097 0 0 0 .173-.842 1.952 1.952 0 0 0-.817-1.321 1.966 1.966 0 0 0-1.457-.323 1.904 1.904 0 0 0-1.454 1.225l-1.043.187a1.066 1.066 0 0 0-.696.45 1.103 1.103 0 0 0 .265 1.52 1.088 1.088 0 0 0 .812.183l1.173-.21 2.344-.418a1.077 1.077 0 0 0 .7-.451Z"/><path fill="#9FDAE4" d="M62.426 30.463c-.174.02-.354.044-.544.078a6.04 6.04 0 0 0-1.237.36 6.16 6.16 0 0 0-2.405 1.832c-1.862 2.236-2.865 5.693-5.308 8.516-.16.185-.325.368-.497.547-2.322 2.428-6.728 4.729-8.813 5.74l.003.032c7.002-1.253 13.997-2.507 20.985-3.76a129.25 129.25 0 0 0-2.184-13.345Z"/><path fill="#E1DFDD" d="m206.231 26.933-.025-.012a316.08 316.08 0 0 0 1.548 4.484 167.777 167.777 0 0 0-7.615 17.677.645.645 0 0 1-.62.429.626.626 0 0 1-.257-.063l-14.923-6.731a.725.725 0 0 1-.26-.203.758.758 0 0 0 .438.662c4.97 2.244 9.944 4.488 14.923 6.732a.628.628 0 0 0 .518.014.645.645 0 0 0 .359-.38 167.982 167.982 0 0 1 7.616-17.678 322.142 322.142 0 0 1-1.702-4.931Z"/><path fill="#80D0DC" d="M199.262 49.447a.626.626 0 0 0 .518.015.645.645 0 0 0 .359-.38 167.978 167.978 0 0 1 7.616-17.678l-3.109-1.41a.356.356 0 0 1-.188-.208.354.354 0 0 1 .022-.281 152.3 152.3 0 0 1 1.414-2.727l.16-.306-9.311-4.225-2.526-1.147a.766.766 0 0 0-.965.34 168.839 168.839 0 0 0-9.305 20.335.776.776 0 0 0 .018.547.76.76 0 0 0 .375.393c4.97 2.244 9.943 4.488 14.922 6.732Zm.802-4.695c-4.351-1.932-8.699-3.864-13.045-5.796l.254-.62 13.038 5.794-.247.622Zm1.154-2.383-12.993-5.848.264-.617 12.987 5.846c-.087.206-.172.412-.257.619h-.001Zm.998-2.362-12.993-5.782.274-.614 12.987 5.78-.268.616Zm1.022-2.322L190.27 31.91l.284-.611 12.963 5.772c-.094.204-.186.408-.278.612h-.001Zm-11.061-9.007c.489-1.007.989-2.01 1.499-3.01a.636.636 0 0 1 .349-.307.623.623 0 0 1 .461.014l3.006 1.363a.56.56 0 0 1 .327.559.569.569 0 0 1-.064.22 178.719 178.719 0 0 0-1.488 3.015.615.615 0 0 1-.797.297l-3.016-1.367a.57.57 0 0 1-.337-.56.597.597 0 0 1 .06-.224Zm12.075 5.212c-.098.203-.194.406-.29.61l-6.625-2.92.293-.609 6.622 2.919Z"/><path fill="#fff" d="M204.479 29.505a.356.356 0 0 0 .05.405.352.352 0 0 0 .115.084l3.11 1.41c-.531-1.498-1.048-2.993-1.549-4.482l-.152-.449c-.055.102-.105.205-.159.307-.48.905-.953 1.813-1.415 2.725ZM192.454 29.462l3.017 1.367a.606.606 0 0 0 .457.013.622.622 0 0 0 .34-.31c.485-1.009.981-2.014 1.487-3.015a.57.57 0 0 0 .037-.448.56.56 0 0 0-.3-.332l-3.004-1.362a.624.624 0 0 0-.461-.015.636.636 0 0 0-.349.308c-.51 1-1.01 2.003-1.499 3.01a.58.58 0 0 0 .275.784ZM189.223 34.225l12.992 5.781.267-.616c-4.332-1.927-8.66-3.854-12.986-5.78l-.273.615ZM190.27 31.91l12.969 5.774.277-.613-12.963-5.772-.283.611ZM188.226 36.52l12.993 5.848.257-.619-12.985-5.846c-.089.205-.178.41-.265.616ZM187.019 38.955l13.045 5.797.247-.622-13.038-5.795-.254.62ZM197.337 31.58l6.625 2.919.29-.61-6.622-2.919-.293.61Z"/><path fill="#DAD7F6" d="M81.696 32.867s-1.261 1.332-4.574.98l-.11 2.836c1.815.39 3.71.135 5.356-.722l-.672-3.094Z"/><path fill="#F7B547" d="m104.712 11.04-1.54-3.8a.412.412 0 0 0-.573-.213l-2.512 1.296a.416.416 0 0 0-.198.521l1.661 4.206a.423.423 0 0 0 .642.183l2.385-1.7a.416.416 0 0 0 .135-.493Z"/><path fill="#EF8F95" d="m93.146 64.838-1.256-3.1a.332.332 0 0 0-.467-.17l-2.054 1.058a.341.341 0 0 0-.157.425l1.355 3.431a.334.334 0 0 0 .38.216.337.337 0 0 0 .144-.066l1.95-1.394a.339.339 0 0 0 .105-.4ZM81.14 18.362l-1.562-3.872a.426.426 0 0 0-.248-.235.436.436 0 0 0-.342.019L76.43 15.6a.42.42 0 0 0-.196.53l1.686 4.285a.425.425 0 0 0 .653.182l2.436-1.735a.425.425 0 0 0 .132-.5Z"/><path fill="#FFD590" d="M111.269 36.44s-1.597.354-3.866-1.556l-1.492 2.047a7.119 7.119 0 0 0 4.329 2.136l1.029-2.627Z"/><path fill="#C3F2F4" d="M113.341 54.83s.796-.104.822-1.594c.006-.614-.149-1.426.299-1.845.609-.576 2.762-.043 2.762-.043s-.544.212-.468 1.389c.078 1.47-.635 1.883-.635 1.883l-2.78.21Z"/><path fill="#C3F2F4" d="M115.432 53.24c.178-.298.27-.64.266-.986-.008-.748-.143-1.818.642-1.952.525-.088 2.625-.154 2.625-.154s-.677.302-.537 1.544c.109.96-.322 1.339-.322 1.339l-2.674.208Z"/><path fill="#7BDDEF" d="M117.223 51.343a8.69 8.69 0 0 0-1.509-.21c-.03.376-.034.754-.013 1.131.004.347-.088.688-.266.986l1.327-.103c.005-.135.003-.27-.005-.405-.084-1.186.466-1.4.466-1.4ZM119.969 50.832l-2.821.12a1.061 1.061 0 0 0-.855-.64c.676-.214 3.117-.184 3.117-.184a.598.598 0 0 1 .559.704Z"/><path fill="#EF8F95" d="m161.614 7.723 2.008 2.658a.33.33 0 0 0 .493.043l1.703-1.548a.339.339 0 0 0 .042-.449l-2.188-2.951a.34.34 0 0 0-.269-.143.334.334 0 0 0-.274.134l-1.517 1.843a.34.34 0 0 0 .002.413Z"/><g clip-path="url(#b)"><mask id="c" width="70" height="70" x="90" y="0" maskUnits="userSpaceOnUse" style="mask-type:luminance"><path fill="#fff" d="M160 0H90v70h70V0Z"/></mask><g mask="url(#c)"><path fill="url(#d)" d="M109.508 19.322c-10.59 0-18.507 8.67-19.103 18.326.37 2.081 1.582 6.19 3.48 5.98 2.374-.264 8.352 0 13.451-9.231 3.725-6.743 11.387-15.075 2.172-15.075Z"/><path fill="url(#e)" d="M107.059 22.925c-3.56 5.636-8.352 13.712-9.969 16.253-1.922 3.021-7.014 1.738-6.592-2.592-.041.351-.073.706-.095 1.063-.697 11.265 8.235 20.62 19.35 20.62 12.25 0 41.466-15.262 38.509-30.555-3.116-8.99-11.875-15.438-21.801-15.438-9.927 0-16.289 5.719-19.402 10.649Z"/><path fill="url(#f)" fill-opacity=".4" d="M107.059 22.925c-3.56 5.636-8.352 13.712-9.969 16.253-1.922 3.021-7.014 1.738-6.592-2.592-.041.351-.073.706-.095 1.063-.697 11.265 8.235 20.62 19.35 20.62 12.25 0 41.466-15.262 38.509-30.555-3.116-8.99-11.875-15.438-21.801-15.438-9.927 0-16.289 5.719-19.402 10.649Z"/><path fill="url(#g)" d="M107.059 22.925c-3.56 5.636-8.352 13.712-9.969 16.253-1.922 3.021-7.014 1.738-6.592-2.592-.041.351-.073.706-.095 1.063-.697 11.265 8.235 20.62 19.35 20.62 12.25 0 41.466-15.262 38.509-30.555-3.116-8.99-11.875-15.438-21.801-15.438-9.927 0-16.289 5.719-19.402 10.649Z"/><path fill="url(#h)" fill-opacity=".6" d="M107.059 22.925c-3.56 5.636-8.352 13.712-9.969 16.253-1.922 3.021-7.014 1.738-6.592-2.592-.041.351-.073.706-.095 1.063-.697 11.265 8.235 20.62 19.35 20.62 12.25 0 41.466-15.262 38.509-30.555-3.116-8.99-11.875-15.438-21.801-15.438-9.927 0-16.289 5.719-19.402 10.649Z"/><path fill="url(#i)" fill-opacity=".9" d="M107.059 22.925c-3.56 5.636-8.352 13.712-9.969 16.253-1.922 3.021-7.014 1.738-6.592-2.592-.041.351-.073.706-.095 1.063-.697 11.265 8.235 20.62 19.35 20.62 12.25 0 41.466-15.262 38.509-30.555-3.116-8.99-11.875-15.438-21.801-15.438-9.927 0-16.289 5.719-19.402 10.649Z"/><path fill="url(#j)" d="M109.574 58.276s29.25.057 34.212.057c9.004 0 15.849-7.35 15.849-15.928.001-8.578-6.983-15.884-15.849-15.884-8.867 0-13.972 6.633-17.807 13.873-4.494 8.485-10.227 17.78-16.405 17.882Z"/><path fill="url(#k)" fill-opacity=".4" d="M109.574 58.276s29.25.057 34.212.057c9.004 0 15.849-7.35 15.849-15.928.001-8.578-6.983-15.884-15.849-15.884-8.867 0-13.972 6.633-17.807 13.873-4.494 8.485-10.227 17.78-16.405 17.882Z"/><path fill="url(#l)" fill-opacity=".9" d="M109.574 58.276s29.25.057 34.212.057c9.004 0 15.849-7.35 15.849-15.928.001-8.578-6.983-15.884-15.849-15.884-8.867 0-13.972 6.633-17.807 13.873-4.494 8.485-10.227 17.78-16.405 17.882Z"/></g></g><defs><radialGradient id="a" cx="0" cy="0" r="1" gradientTransform="rotate(-10.105 301.98 -262.13) scale(10.2999 10.3498)" gradientUnits="userSpaceOnUse"><stop offset=".338" stop-color="#50C5D3"/><stop offset=".513" stop-color="#53C6D4"/><stop offset=".701" stop-color="#83D1DC"/><stop offset=".869" stop-color="#9BD9E3"/><stop offset="1" stop-color="#C5E8EF"/></radialGradient><radialGradient id="d" cx="0" cy="0" r="1" gradientTransform="rotate(50.153 22.509 108.931) scale(21.833 36.2141)" gradientUnits="userSpaceOnUse"><stop stop-color="#4894FE"/><stop offset=".695" stop-color="#0934B3"/></radialGradient><radialGradient id="e" cx="0" cy="0" r="1" gradientTransform="rotate(130.923 75.915 32.672) scale(93.8839 69.5688)" gradientUnits="userSpaceOnUse"><stop offset=".165" stop-color="#23C0FE"/><stop offset=".534" stop-color="#1C91FF"/></radialGradient><radialGradient id="f" cx="0" cy="0" r="1" gradientTransform="rotate(-139.986 57.147 -7.73) scale(19.0875 43.6954)" gradientUnits="userSpaceOnUse"><stop stop-color="#fff"/><stop offset=".661" stop-color="#ADC0FF" stop-opacity="0"/></radialGradient><radialGradient id="g" cx="0" cy="0" r="1" gradientTransform="rotate(-139.764 71.682 -.368) scale(21.5144 32.6742)" gradientUnits="userSpaceOnUse"><stop stop-color="#033ACC"/><stop offset="1" stop-color="#368EFF" stop-opacity="0"/></radialGradient><radialGradient id="h" cx="0" cy="0" r="1" gradientTransform="matrix(18.77002 43.31541 -46.76148 20.26331 104.622 10.821)" gradientUnits="userSpaceOnUse"><stop offset=".593" stop-color="#3464E3" stop-opacity="0"/><stop offset="1" stop-color="#033ACC"/></radialGradient><radialGradient id="i" cx="0" cy="0" r="1" gradientTransform="matrix(-49.10213 49.10213 -76.92615 -76.92615 149.573 1.617)" gradientUnits="userSpaceOnUse"><stop stop-color="#4BFDE8"/><stop offset=".544" stop-color="#4BFDE8" stop-opacity="0"/></radialGradient><radialGradient id="k" cx="0" cy="0" r="1" gradientTransform="rotate(21.632 -20.093 324.498) scale(31.4662 59.5865)" gradientUnits="userSpaceOnUse"><stop stop-color="#fff"/><stop offset=".785" stop-color="#fff" stop-opacity="0"/></radialGradient><radialGradient id="l" cx="0" cy="0" r="1" gradientTransform="rotate(139.243 74.86 41.496) scale(43.1393 43.2857)" gradientUnits="userSpaceOnUse"><stop stop-color="#4BFDE8"/><stop offset=".585" stop-color="#4BFDE8" stop-opacity="0"/></radialGradient><linearGradient id="j" x1="134.621" x2="134.621" y1="58.301" y2="26.898" gradientUnits="userSpaceOnUse"><stop stop-color="#0086FF"/><stop offset=".49" stop-color="#0BF"/></linearGradient><clipPath id="b"><path fill="#fff" d="M90 0h70v70H90z"/></clipPath></defs></svg>